<svg width="317" height="334" viewBox="0 0 317 334" fill="none" xmlns="http://www.w3.org/2000/svg">
<path d="M228.335 244.913C226.8 250.619 222.513 251.855 218.538 251.144C217.442 250.949 216.348 250.71 215.27 250.422C208.149 248.512 201.634 245.164 195.271 241.49C187.351 236.919 179.954 231.599 173.082 225.539C172.696 225.2 172.326 224.844 171.836 224.39C176.063 220.704 178.756 216.132 179.779 210.342C182.699 211.455 185.537 212.454 188.311 213.612C199.909 218.451 210.868 224.418 220.596 232.53C221.458 233.248 222.278 234.021 223.08 234.809C225.25 236.946 227.298 239.172 228.308 242.128C228.318 243.057 228.328 243.982 228.338 244.911L228.335 244.913Z" fill="#3DB54A"/>
<path d="M164.507 184.421C159.066 182.505 153.799 182.435 148.339 184.304C147.868 181.877 147.35 179.534 146.969 177.174C145.417 167.602 144.727 157.994 145.261 148.342C145.605 142.096 146.216 135.889 148.666 130.08C149.893 127.169 152.114 125.498 155.32 125.281C158.697 125.054 161.64 126.887 163.108 130.144C164.894 134.093 165.757 138.282 166.299 142.526C168.071 156.332 167.326 169.999 164.775 183.555C164.726 183.818 164.616 184.065 164.505 184.423L164.507 184.421Z" fill="#3DB54A"/>
<path d="M133.737 209.981C134.876 215.658 137.617 220.275 142.062 224.135C139.533 226.209 137.152 228.277 134.652 230.189C125.028 237.55 114.769 243.853 103.256 247.928C100.509 248.901 97.5698 249.482 94.6641 249.888C91.3318 250.35 88.6318 248.9 86.9343 245.939C85.2009 242.91 85.5568 239.94 87.5674 237.223C90.1009 233.793 93.2821 231.019 96.6984 228.519C107.781 220.415 119.954 214.395 133.061 210.178C133.229 210.123 133.4 210.08 133.739 209.983L133.737 209.981Z" fill="#3DB54A"/>
<path d="M170.631 206.467C170.695 214.116 164.52 220.282 156.869 220.21C149.169 220.136 142.84 213.78 142.782 206.063C142.725 198.384 148.851 192.281 156.547 192.355C164.306 192.433 170.568 198.704 170.631 206.467Z" fill="#6ABD45"/>
<path d="M316.419 288.715L293.813 73.3571C293.329 68.5759 288.565 64.9558 282.995 64.9558H236.491C235.845 29.0286 201.128 0 158.5 0C115.871 0 81.1551 29.0286 80.5092 64.9558H34.0054C28.3539 64.9558 23.6712 68.5759 23.1868 73.3571L0.580738 288.715C0.580738 288.989 0.5 289.262 0.5 289.535C0.5 314.056 27.0621 334 59.7601 334H257.24C289.938 334 316.5 314.056 316.5 289.535C316.5 289.262 316.5 288.989 316.419 288.715ZM158.5 18.4417C189.099 18.4417 214.046 39.2057 214.692 64.9558H102.308C102.954 39.2057 127.901 18.4417 158.5 18.4417ZM257.24 315.558H59.7601C39.2532 315.558 22.6216 304.083 22.2987 289.945L43.9359 83.4659H80.4285V111.47C80.4285 116.593 85.2726 120.691 91.3278 120.691C97.383 120.691 102.227 116.593 102.227 111.47V83.4659H214.692V111.47C214.692 116.593 219.536 120.691 225.591 120.691C231.647 120.691 236.491 116.593 236.491 111.47V83.4659H272.983L294.701 289.945C294.378 304.083 277.666 315.558 257.24 315.558Z" fill="#006838"/>
</svg>
