<svg width="729" height="729" viewBox="0 0 729 729" fill="none" xmlns="http://www.w3.org/2000/svg">
<path d="M671.711 212.021C683.479 231.288 675.896 246.561 663.75 255.859C660.406 258.424 656.944 260.868 653.388 263.138C629.878 278.121 603.969 287.634 577.547 295.865C544.67 306.114 511.067 312.93 476.777 316.336C474.853 316.53 472.925 316.635 470.42 316.823C471.107 295.291 465.426 275.748 452.11 257.695C462.655 252.417 472.68 247.069 482.978 242.316C526.021 222.448 570.529 207.324 617.791 201.281C621.976 200.744 626.207 200.47 630.429 200.284C641.874 199.796 653.249 199.879 663.973 204.793C666.557 207.202 669.127 209.599 671.71 212.008L671.711 212.021Z" fill="#3DB54A"/>
<path d="M341.622 232.613C322.402 242.865 308.712 257.468 299.863 277.695C291.975 272.656 284.2 267.967 276.725 262.851C246.402 242.111 218.186 218.861 192.99 192.06C176.682 174.718 161.16 156.731 151.451 134.627C146.583 123.55 147.677 112.935 155.295 103.366C163.324 93.2904 175.914 89.834 188.64 94.2492C204.088 99.5918 217.829 108.15 230.901 117.753C273.443 148.972 309.151 186.893 339.926 229.593C340.523 230.418 340.922 231.376 341.622 232.626L341.622 232.613Z" fill="#3DB54A"/>
<path d="M333.118 386.006C351.665 397.69 371.396 402.101 393.416 399.741C392.642 412.277 392.231 424.384 391.086 436.415C386.683 482.729 377.738 528.053 359.448 571.053C355.086 581.315 349.154 591.09 342.824 600.311C335.556 610.878 324.643 614.654 312.143 611.657C299.363 608.582 292.101 599.798 289.775 587.029C286.827 570.925 287.347 554.725 289.219 538.579C295.317 486.223 309.944 436.27 331.928 388.42C332.209 387.805 332.529 387.213 333.131 386.005L333.118 386.006Z" fill="#3DB54A"/>
<path d="M418.003 273.226C439.221 293.097 440.365 326.595 420.559 347.887C400.619 369.309 366.905 370.411 345.517 350.343C324.232 330.373 323.136 297.176 343.064 275.767C363.162 254.188 396.471 253.05 418.003 273.226Z" fill="#6ABD45"/>
<path d="M598.098 529.91C586.161 549.073 569.109 549.15 555.35 542.468C551.556 540.632 547.819 538.635 544.195 536.475C520.255 522.19 500.126 503.304 480.914 483.386C457.001 458.605 435.83 431.634 417.399 402.52C416.362 400.887 415.403 399.211 414.11 397.057C433.661 388.008 448.577 374.161 458.734 354.16C468.183 361.215 477.461 367.773 486.329 374.844C523.401 404.393 556.89 437.382 583.499 476.906C585.857 480.404 588.001 484.063 590.061 487.752C595.633 497.76 600.664 507.963 601.085 519.752C600.091 523.142 599.103 526.515 598.109 529.904L598.098 529.91Z" fill="#006838"/>
<path d="M431.567 244.165C413.78 231.59 394.587 225.909 372.54 227.078C373.503 217.767 374.204 208.715 375.422 199.739C380.348 163.333 388.464 127.685 401.108 93.1411C409.287 70.7853 418.396 48.8413 433.792 30.2461C441.506 20.9253 451.484 17.1385 463.454 19.6523C476.061 22.3065 484.8 32.0066 486.565 45.3607C488.722 61.5626 487.241 77.6833 484.525 93.6743C475.717 145.702 457.853 194.63 433.505 241.294C433.036 242.197 432.359 242.984 431.556 244.171L431.567 244.165Z" fill="#006838"/>
<path d="M290.671 305.402C288.552 327.22 293.465 346.832 305.455 365.451C293.905 370.385 282.901 375.451 271.636 379.827C228.271 396.676 183.753 409.022 137.118 411.973C125.989 412.68 114.592 411.766 103.511 410.247C90.8069 408.494 82.5349 400.436 79.6036 387.921C76.6166 375.119 81.2078 364.688 91.5742 356.879C104.643 347.018 119.353 340.212 134.623 334.64C184.148 316.594 235.353 307.249 287.979 305.422C288.655 305.397 289.328 305.418 290.677 305.413L290.671 305.402Z" fill="#006838"/>
<path d="M429.55 330.649C421.313 358.528 391.892 374.584 363.976 366.439C335.884 358.233 319.77 328.599 328.105 300.479C336.4 272.496 365.574 256.619 393.65 264.82C421.953 273.098 437.918 302.353 429.55 330.649Z" fill="#006838"/>
</svg>
