<svg width="256" height="97" viewBox="0 0 256 97" fill="none" xmlns="http://www.w3.org/2000/svg">
<g filter="url(#filter0_b_1586_5555)">
<rect y="0.5" width="255.524" height="95.5714" rx="12.1905" fill="white" fill-opacity="0.6"/>
<path fill-rule="evenodd" clip-rule="evenodd" d="M51.6661 12.6904C51.3301 12.6904 51.0305 12.9233 50.915 13.2735L48.8634 19.5055C48.7986 19.7026 48.7656 19.9088 48.7656 20.1162V22.5953C48.7656 23.9971 49.7887 25.1349 51.051 25.1349C52.3132 25.1349 53.3372 23.9971 53.3372 22.5953C53.3372 23.998 54.3603 25.1349 55.6225 25.1349C56.8847 25.1349 57.9087 23.9971 57.9087 22.5953C57.9087 23.998 58.9318 25.1349 60.1941 25.1349C61.4563 25.1349 62.4785 23.9989 62.4803 22.5971C62.4803 23.9989 63.5034 25.1349 64.7656 25.1349C66.0278 25.1349 67.051 23.9971 67.051 22.5953C67.051 23.998 68.075 25.1349 69.3372 25.1349C70.5994 25.1349 71.6216 23.9989 71.6225 22.5971C71.6234 23.9989 72.6465 25.1349 73.9087 25.1349C75.171 25.1349 76.1941 23.9971 76.1941 22.5953C76.1941 23.998 77.2172 25.1349 78.4803 25.1349C79.7425 25.1349 80.7656 23.9971 80.7656 22.5953V20.1162C80.7656 19.9088 80.7326 19.7026 80.6678 19.5055L78.6163 13.2744C78.5007 12.9233 78.2012 12.6904 77.8652 12.6904H51.6661Z" fill="url(#paint0_linear_1586_5555)"/>
<path fill-rule="evenodd" clip-rule="evenodd" d="M52.3229 26.2283V33.135H50.1007C49.9828 33.135 49.8698 33.1818 49.7864 33.2652C49.7031 33.3485 49.6562 33.4616 49.6562 33.5794V34.4683C49.6562 34.5862 49.7031 34.6992 49.7864 34.7826C49.8698 34.8659 49.9828 34.9128 50.1007 34.9128H79.434C79.5519 34.9128 79.6649 34.8659 79.7483 34.7826C79.8316 34.6992 79.8785 34.5862 79.8785 34.4683V33.5794C79.8785 33.4616 79.8316 33.3485 79.7483 33.2652C79.6649 33.1818 79.5519 33.135 79.434 33.135H77.2118V26.2283C76.8397 26.08 76.496 25.8686 76.1958 25.6034C75.9654 25.8067 75.7092 25.9788 75.434 26.1154V33.135H54.1007V26.1154C53.8255 25.9788 53.5694 25.8067 53.3389 25.6034C53.0402 25.8656 52.6989 26.079 52.3229 26.2283ZM75.434 24.4888C75.5096 24.4132 75.5807 24.3323 75.6474 24.2461H75.434V24.4888ZM76.7442 24.2461C76.8786 24.4202 77.0359 24.5754 77.2118 24.7074V24.2461H76.7442ZM52.3229 24.7074C52.4997 24.5764 52.6571 24.4211 52.7905 24.2461H52.3229V24.7074ZM53.8874 24.2461H54.1007V24.4888C54.0243 24.4126 53.9531 24.3316 53.8874 24.2461ZM50.9896 36.6905C50.8717 36.6905 50.7587 36.7374 50.6753 36.8207C50.592 36.9041 50.5451 37.0171 50.5451 37.135V43.8016C50.5451 44.0374 50.6388 44.2635 50.8055 44.4302C50.9722 44.5969 51.1983 44.6905 51.434 44.6905H78.1007C78.3364 44.6905 78.5625 44.5969 78.7292 44.4302C78.8959 44.2635 78.9896 44.0374 78.9896 43.8016V37.135C78.9896 37.0171 78.9428 36.9041 78.8594 36.8207C78.7761 36.7374 78.663 36.6905 78.5451 36.6905H50.9896Z" fill="url(#paint1_linear_1586_5555)"/>
<path d="M55.875 30.9127C55.875 30.7948 55.9218 30.6818 56.0052 30.5984C56.0885 30.5151 56.2016 30.4683 56.3194 30.4683H58.9861C59.104 30.4683 59.217 30.5151 59.3004 30.5984C59.3837 30.6818 59.4306 30.7948 59.4306 30.9127V32.6905C59.4306 32.8084 59.3837 32.9214 59.3004 33.0048C59.217 33.0881 59.104 33.1349 58.9861 33.1349H56.3194C56.2016 33.1349 56.0885 33.0881 56.0052 33.0048C55.9218 32.9214 55.875 32.8084 55.875 32.6905V30.9127Z" fill="url(#paint2_linear_1586_5555)"/>
<path d="M57.6562 31.8016C57.6562 31.6837 57.7031 31.5707 57.7864 31.4873C57.8698 31.404 57.9828 31.3572 58.1007 31.3572H60.7674C60.8852 31.3572 60.9983 31.404 61.0816 31.4873C61.165 31.5707 61.2118 31.6837 61.2118 31.8016V32.6905C61.2118 32.8084 61.165 32.9214 61.0816 33.0048C60.9983 33.0881 60.8852 33.1349 60.7674 33.1349H58.1007C57.9828 33.1349 57.8698 33.0881 57.7864 33.0048C57.7031 32.9214 57.6562 32.8084 57.6562 32.6905V31.8016ZM64.7674 31.8016C64.7674 32.1552 64.6269 32.4944 64.3768 32.7444C64.1268 32.9945 63.7877 33.1349 63.434 33.1349C63.0804 33.1349 62.7413 32.9945 62.4912 32.7444C62.2412 32.4944 62.1007 32.1552 62.1007 31.8016C62.1007 31.448 62.2412 31.1088 62.4912 30.8588C62.7413 30.6087 63.0804 30.4683 63.434 30.4683C63.7877 30.4683 64.1268 30.6087 64.3768 30.8588C64.6269 31.1088 64.7674 31.448 64.7674 31.8016Z" fill="url(#paint3_linear_1586_5555)"/>
<path d="M58.1916 74.2843H52.8705L51.9562 76.8809H49.7802L54.3333 64.154H56.747L61.3002 76.8809H59.1059L58.1916 74.2843ZM57.6065 72.5837L55.5402 66.6774L53.4556 72.5837H57.6065ZM62.5851 71.834C62.5851 70.7978 62.7923 69.8896 63.2068 69.1094C63.6334 68.317 64.2186 67.7075 64.9622 67.2809C65.7058 66.8542 66.5591 66.6409 67.5222 66.6409C68.7412 66.6409 69.747 66.9334 70.5393 67.5186C71.3439 68.0915 71.8864 68.9144 72.1668 69.9871H69.9176C69.7348 69.4873 69.4422 69.0972 69.0399 68.8169C68.6376 68.5365 68.1317 68.3963 67.5222 68.3963C66.6689 68.3963 65.9862 68.701 65.4742 69.3106C64.9744 69.9079 64.7245 70.749 64.7245 71.834C64.7245 72.919 64.9744 73.7662 65.4742 74.3757C65.9862 74.9852 66.6689 75.29 67.5222 75.29C68.7291 75.29 69.5275 74.7597 69.9176 73.6991H72.1668C71.8742 74.7231 71.3256 75.5399 70.5211 76.1494C69.7165 76.7468 68.7169 77.0454 67.5222 77.0454C66.5591 77.0454 65.7058 76.8321 64.9622 76.4054C64.2186 75.9666 63.6334 75.357 63.2068 74.5769C62.7923 73.7845 62.5851 72.8702 62.5851 71.834ZM73.5493 71.834C73.5493 70.7978 73.7566 69.8896 74.1711 69.1094C74.5977 68.317 75.1829 67.7075 75.9265 67.2809C76.6701 66.8542 77.5234 66.6409 78.4865 66.6409C79.7055 66.6409 80.7112 66.9334 81.5036 67.5186C82.3082 68.0915 82.8507 68.9144 83.1311 69.9871H80.8819C80.6991 69.4873 80.4065 69.0972 80.0042 68.8169C79.6019 68.5365 79.096 68.3963 78.4865 68.3963C77.6331 68.3963 76.9505 68.701 76.4385 69.3106C75.9387 69.9079 75.6888 70.749 75.6888 71.834C75.6888 72.919 75.9387 73.7662 76.4385 74.3757C76.9505 74.9852 77.6331 75.29 78.4865 75.29C79.6933 75.29 80.4918 74.7597 80.8819 73.6991H83.1311C82.8385 74.7231 82.2899 75.5399 81.4853 76.1494C80.6808 76.7468 79.6811 77.0454 78.4865 77.0454C77.5234 77.0454 76.6701 76.8321 75.9265 76.4054C75.1829 75.9666 74.5977 75.357 74.1711 74.5769C73.7566 73.7845 73.5493 72.8702 73.5493 71.834ZM94.4428 71.5963C94.4428 71.9742 94.4184 72.3155 94.3696 72.6203H86.6713C86.7323 73.4249 87.031 74.071 87.5673 74.5586C88.1037 75.0462 88.762 75.29 89.5422 75.29C90.6637 75.29 91.4561 74.8207 91.9193 73.882H94.1685C93.8637 74.8085 93.3091 75.5704 92.5045 76.1677C91.7121 76.7529 90.7247 77.0454 89.5422 77.0454C88.5791 77.0454 87.7136 76.8321 86.9456 76.4054C86.1898 75.9666 85.5925 75.357 85.1536 74.5769C84.727 73.7845 84.5136 72.8702 84.5136 71.834C84.5136 70.7978 84.7209 69.8896 85.1353 69.1094C85.562 68.317 86.1532 67.7075 86.9091 67.2809C87.6771 66.8542 88.5548 66.6409 89.5422 66.6409C90.4931 66.6409 91.3403 66.8481 92.0839 67.2626C92.8275 67.677 93.4066 68.2622 93.8211 69.018C94.2355 69.7616 94.4428 70.621 94.4428 71.5963ZM92.2668 70.938C92.2546 70.17 91.9803 69.5544 91.4439 69.0911C90.9075 68.6279 90.2431 68.3963 89.4508 68.3963C88.7315 68.3963 88.1159 68.6279 87.6039 69.0911C87.0919 69.5422 86.7871 70.1578 86.6896 70.938H92.2668ZM100.151 77.0454C99.359 77.0454 98.6458 76.9052 98.0119 76.6249C97.3902 76.3323 96.8965 75.9422 96.5308 75.4546C96.1651 74.9548 95.97 74.4001 95.9456 73.7906H98.1033C98.1399 74.2172 98.3411 74.5769 98.7068 74.8694C99.0847 75.1498 99.554 75.29 100.115 75.29C100.7 75.29 101.151 75.1803 101.468 74.9609C101.797 74.7292 101.962 74.4367 101.962 74.0831C101.962 73.7052 101.779 73.4249 101.413 73.242C101.06 73.0591 100.493 72.858 99.7125 72.6386C98.9567 72.4313 98.3411 72.2302 97.8656 72.0351C97.3902 71.8401 96.9757 71.5414 96.6222 71.1391C96.2809 70.7369 96.1102 70.2066 96.1102 69.5483C96.1102 69.0119 96.2687 68.5243 96.5856 68.0854C96.9026 67.6344 97.3536 67.2809 97.9388 67.0249C98.5361 66.7689 99.2188 66.6409 99.9868 66.6409C101.133 66.6409 102.053 66.9334 102.748 67.5186C103.455 68.0915 103.833 68.8778 103.882 69.8774H101.797C101.76 69.4264 101.578 69.0668 101.248 68.7986C100.919 68.5304 100.474 68.3963 99.9136 68.3963C99.3651 68.3963 98.9445 68.4999 98.6519 68.7071C98.3593 68.9144 98.2131 69.1887 98.2131 69.53C98.2131 69.7982 98.3106 70.0237 98.5056 70.2066C98.7007 70.3894 98.9384 70.5357 99.2188 70.6454C99.4991 70.743 99.9136 70.871 100.462 71.0294C101.194 71.2245 101.791 71.4256 102.254 71.6329C102.73 71.8279 103.138 72.1205 103.479 72.5106C103.821 72.9007 103.997 73.4188 104.01 74.0649C104.01 74.6378 103.851 75.1498 103.534 75.6009C103.217 76.0519 102.766 76.4054 102.181 76.6614C101.608 76.9174 100.932 77.0454 100.151 77.0454ZM109.919 77.0454C109.127 77.0454 108.414 76.9052 107.78 76.6249C107.158 76.3323 106.664 75.9422 106.299 75.4546C105.933 74.9548 105.738 74.4001 105.713 73.7906H107.871C107.908 74.2172 108.109 74.5769 108.475 74.8694C108.853 75.1498 109.322 75.29 109.883 75.29C110.468 75.29 110.919 75.1803 111.236 74.9609C111.565 74.7292 111.729 74.4367 111.729 74.0831C111.729 73.7052 111.547 73.4249 111.181 73.242C110.827 73.0591 110.261 72.858 109.48 72.6386C108.725 72.4313 108.109 72.2302 107.633 72.0351C107.158 71.8401 106.744 71.5414 106.39 71.1391C106.049 70.7369 105.878 70.2066 105.878 69.5483C105.878 69.0119 106.037 68.5243 106.353 68.0854C106.67 67.6344 107.121 67.2809 107.707 67.0249C108.304 66.7689 108.987 66.6409 109.755 66.6409C110.901 66.6409 111.821 66.9334 112.516 67.5186C113.223 68.0915 113.601 68.8778 113.649 69.8774H111.565C111.528 69.4264 111.345 69.0668 111.016 68.7986C110.687 68.5304 110.242 68.3963 109.681 68.3963C109.133 68.3963 108.712 68.4999 108.42 68.7071C108.127 68.9144 107.981 69.1887 107.981 69.53C107.981 69.7982 108.078 70.0237 108.273 70.2066C108.469 70.3894 108.706 70.5357 108.987 70.6454C109.267 70.743 109.681 70.871 110.23 71.0294C110.961 71.2245 111.559 71.4256 112.022 71.6329C112.497 71.8279 112.906 72.1205 113.247 72.5106C113.589 72.9007 113.765 73.4188 113.777 74.0649C113.777 74.6378 113.619 75.1498 113.302 75.6009C112.985 76.0519 112.534 76.4054 111.949 76.6614C111.376 76.9174 110.699 77.0454 109.919 77.0454ZM123.212 68.506V74.0831C123.212 74.461 123.297 74.7353 123.468 74.906C123.651 75.0645 123.956 75.1437 124.382 75.1437H125.662V76.8809H124.016C123.078 76.8809 122.359 76.6614 121.859 76.2226C121.359 75.7837 121.109 75.0706 121.109 74.0831V68.506H119.92V66.8054H121.109V64.3003H123.212V66.8054H125.662V68.506H123.212ZM131.954 77.0454C131.003 77.0454 130.143 76.8321 129.375 76.4054C128.607 75.9666 128.004 75.357 127.565 74.5769C127.126 73.7845 126.907 72.8702 126.907 71.834C126.907 70.81 127.132 69.9018 127.583 69.1094C128.035 68.317 128.65 67.7075 129.43 67.2809C130.211 66.8542 131.082 66.6409 132.045 66.6409C133.008 66.6409 133.88 66.8542 134.66 67.2809C135.44 67.7075 136.056 68.317 136.507 69.1094C136.958 69.9018 137.183 70.81 137.183 71.834C137.183 72.858 136.952 73.7662 136.489 74.5586C136.025 75.351 135.391 75.9666 134.587 76.4054C133.795 76.8321 132.917 77.0454 131.954 77.0454ZM131.954 75.2351C132.49 75.2351 132.99 75.1071 133.453 74.8511C133.929 74.5951 134.313 74.2111 134.605 73.6991C134.898 73.1871 135.044 72.5654 135.044 71.834C135.044 71.1026 134.904 70.487 134.623 69.9871C134.343 69.4751 133.971 69.0911 133.508 68.8351C133.045 68.5791 132.545 68.4511 132.009 68.4511C131.472 68.4511 130.972 68.5791 130.509 68.8351C130.058 69.0911 129.699 69.4751 129.43 69.9871C129.162 70.487 129.028 71.1026 129.028 71.834C129.028 72.919 129.302 73.7601 129.851 74.3574C130.412 74.9426 131.113 75.2351 131.954 75.2351ZM157.379 64.1723V76.8809H155.295V68.1769L151.418 76.8809H149.974L146.079 68.1769V76.8809H143.994V64.1723H146.243L150.705 74.138L155.148 64.1723H157.379ZM159.424 71.7974C159.424 70.7856 159.632 69.8896 160.046 69.1094C160.473 68.3292 161.046 67.7258 161.765 67.2991C162.496 66.8603 163.301 66.6409 164.179 66.6409C164.971 66.6409 165.66 66.7993 166.245 67.1163C166.842 67.421 167.318 67.805 167.671 68.2683V66.8054H169.774V76.8809H167.671V75.3814C167.318 75.8569 166.836 76.253 166.227 76.57C165.617 76.887 164.922 77.0454 164.142 77.0454C163.277 77.0454 162.484 76.826 161.765 76.3871C161.046 75.9361 160.473 75.3144 160.046 74.522C159.632 73.7174 159.424 72.8092 159.424 71.7974ZM167.671 71.834C167.671 71.1391 167.525 70.5357 167.232 70.0237C166.952 69.5117 166.58 69.1216 166.117 68.8534C165.654 68.5852 165.154 68.4511 164.617 68.4511C164.081 68.4511 163.581 68.5852 163.118 68.8534C162.655 69.1094 162.277 69.4934 161.984 70.0054C161.704 70.5052 161.564 71.1026 161.564 71.7974C161.564 72.4923 161.704 73.1018 161.984 73.626C162.277 74.1502 162.655 74.5525 163.118 74.8329C163.593 75.101 164.093 75.2351 164.617 75.2351C165.154 75.2351 165.654 75.101 166.117 74.8329C166.58 74.5647 166.952 74.1746 167.232 73.6626C167.525 73.1384 167.671 72.5289 167.671 71.834ZM174.597 68.2683C174.901 67.7563 175.304 67.3601 175.803 67.0797C176.315 66.7871 176.919 66.6409 177.614 66.6409V68.7986H177.083C176.267 68.7986 175.645 69.0058 175.218 69.4203C174.804 69.8348 174.597 70.554 174.597 71.578V76.8809H172.512V66.8054H174.597V68.2683ZM183.516 71.8523L188.161 76.8809H185.345L181.614 72.5471V76.8809H179.53V63.3494H181.614V71.2123L185.272 66.8054H188.161L183.516 71.8523ZM198.889 71.5963C198.889 71.9742 198.865 72.3155 198.816 72.6203H191.118C191.179 73.4249 191.477 74.071 192.014 74.5586C192.55 75.0462 193.208 75.29 193.989 75.29C195.11 75.29 195.903 74.8207 196.366 73.882H198.615C198.31 74.8085 197.755 75.5704 196.951 76.1677C196.159 76.7529 195.171 77.0454 193.989 77.0454C193.026 77.0454 192.16 76.8321 191.392 76.4054C190.636 75.9666 190.039 75.357 189.6 74.5769C189.173 73.7845 188.96 72.8702 188.96 71.834C188.96 70.7978 189.167 69.8896 189.582 69.1094C190.008 68.317 190.6 67.7075 191.355 67.2809C192.123 66.8542 193.001 66.6409 193.989 66.6409C194.939 66.6409 195.787 66.8481 196.53 67.2626C197.274 67.677 197.853 68.2622 198.267 69.018C198.682 69.7616 198.889 70.621 198.889 71.5963ZM196.713 70.938C196.701 70.17 196.427 69.5544 195.89 69.0911C195.354 68.6279 194.69 68.3963 193.897 68.3963C193.178 68.3963 192.562 68.6279 192.05 69.0911C191.538 69.5422 191.234 70.1578 191.136 70.938H196.713ZM203.373 68.506V74.0831C203.373 74.461 203.458 74.7353 203.629 74.906C203.811 75.0645 204.116 75.1437 204.543 75.1437H205.823V76.8809H204.177C203.239 76.8809 202.519 76.6614 202.019 76.2226C201.52 75.7837 201.27 75.0706 201.27 74.0831V68.506H200.081V66.8054H201.27V64.3003H203.373V66.8054H205.823V68.506H203.373Z" fill="black"/>
</g>
<defs>
<filter id="filter0_b_1586_5555" x="-36.5714" y="-36.0714" width="328.666" height="168.714" filterUnits="userSpaceOnUse" color-interpolation-filters="sRGB">
<feFlood flood-opacity="0" result="BackgroundImageFix"/>
<feGaussianBlur in="BackgroundImageFix" stdDeviation="18.2857"/>
<feComposite in2="SourceAlpha" operator="in" result="effect1_backgroundBlur_1586_5555"/>
<feBlend mode="normal" in="SourceGraphic" in2="effect1_backgroundBlur_1586_5555" result="shape"/>
</filter>
<linearGradient id="paint0_linear_1586_5555" x1="64.7656" y1="12.6904" x2="64.7656" y2="25.1349" gradientUnits="userSpaceOnUse">
<stop stop-color="#F25C05"/>
<stop offset="1" stop-color="#F25C05" stop-opacity="0"/>
</linearGradient>
<linearGradient id="paint1_linear_1586_5555" x1="64.7674" y1="24.2461" x2="64.7674" y2="44.6905" gradientUnits="userSpaceOnUse">
<stop stop-color="#F25C05"/>
<stop offset="1" stop-color="#F25C05" stop-opacity="0"/>
</linearGradient>
<linearGradient id="paint2_linear_1586_5555" x1="57.6528" y1="30.4683" x2="57.6528" y2="33.1349" gradientUnits="userSpaceOnUse">
<stop stop-color="#F25C05"/>
<stop offset="1" stop-color="#F25C05" stop-opacity="0"/>
</linearGradient>
<linearGradient id="paint3_linear_1586_5555" x1="61.2118" y1="30.4683" x2="61.2118" y2="33.1349" gradientUnits="userSpaceOnUse">
<stop stop-color="#F25C05"/>
<stop offset="1" stop-color="#F25C05" stop-opacity="0"/>
</linearGradient>
</defs>
</svg>
