<svg width="138" height="46" viewBox="0 0 138 46" fill="none" xmlns="http://www.w3.org/2000/svg">
<g id="Group 11">
<g id="Group">
<path id="Vector" d="M56.2367 43.011C54.6092 43.9286 53.3679 43.2573 52.6341 42.2259C52.4315 41.942 52.2395 41.6486 52.062 41.348C50.8907 39.3603 50.1787 37.19 49.5743 34.9811C48.8216 32.2324 48.355 29.4336 48.1723 26.5879C48.1619 26.4282 48.1587 26.2684 48.1504 26.0607C49.9292 26.1797 51.5619 25.7663 53.0934 24.7172C53.4995 25.6045 53.9129 26.449 54.2762 27.3145C55.7951 30.9317 56.9173 34.6564 57.2806 38.5826C57.3129 38.9302 57.3234 39.281 57.3265 39.6307C57.3338 40.5786 57.2942 41.5192 56.8568 42.3919C56.6501 42.5986 56.4444 42.8043 56.2377 43.011H56.2367Z" fill="#3DB54A"/>
<path id="Vector_2" d="M55.4878 15.6521C54.6955 14.0329 53.5273 12.8585 51.88 12.0683C52.3195 11.4304 52.7298 10.8009 53.1745 10.1975C54.9773 7.74953 56.9817 5.48316 59.271 3.47673C60.7524 2.17809 62.2848 0.94625 64.1409 0.207149C65.0711 -0.163445 65.9459 -0.0423493 66.7153 0.615325C67.5254 1.30849 67.7749 2.35973 67.3729 3.39948C66.8865 4.66159 66.139 5.77337 65.307 6.8267C62.6022 10.255 59.3629 13.0986 55.7425 15.5205C55.6726 15.5675 55.5922 15.5978 55.4868 15.6521H55.4878Z" fill="#3DB54A"/>
<path id="Vector_3" d="M42.8256 14.5058C41.8057 16.0059 41.384 17.625 41.5155 19.4529C40.481 19.3527 39.4809 19.2838 38.4892 19.1544C34.6715 18.6564 30.9489 17.7858 27.4455 16.1489C26.6093 15.7585 25.818 15.2396 25.0737 14.6895C24.2208 14.0579 23.94 13.1445 24.2239 12.1193C24.5152 11.0712 25.2626 10.496 26.3253 10.3405C27.6657 10.1432 29.004 10.233 30.334 10.4344C34.6465 11.09 38.7355 12.444 42.6294 14.4003C42.6795 14.4254 42.7275 14.4536 42.8256 14.5068V14.5058Z" fill="#3DB54A"/>
<path id="Vector_4" d="M51.9084 21.8519C50.2037 23.5494 47.43 23.5473 45.7263 21.8478C44.0121 20.1368 44.0184 17.3453 45.7398 15.6343C47.4529 13.9317 50.2016 13.9369 51.9147 15.6468C53.6413 17.3714 53.6392 20.1295 51.9084 21.8519Z" fill="#6ABD45"/>
</g>
<g id="Group_2">
<path id="Vector_5" d="M18.3523 39.1412H13.4969L12.2348 35.0542H6.03495L4.7457 39.1412H0L6.36483 21.0364H12.0156L18.3523 39.1412ZM6.91289 31.8442H11.3569L9.13541 24.52L6.91393 31.8442H6.91289Z" fill="#006838"/>
<path id="Vector_6" d="M28.6929 36.0961C30.2839 36.0961 31.5042 36.4302 32.355 37.0973C33.2058 37.7654 33.6307 38.7206 33.6307 39.9639C33.6307 41.0976 33.3196 42.0392 32.6974 42.7898C32.0752 43.5394 31.2025 44.102 30.0782 44.4768C28.9539 44.8516 27.6229 45.0384 26.0873 45.0384C23.5996 45.0384 21.8082 44.7273 20.71 44.1052C19.6128 43.483 19.0637 42.6426 19.0637 41.582C19.0637 40.8137 19.3748 40.1915 19.997 39.7165C20.6181 39.2405 21.6516 38.9857 23.0964 38.9482L22.9868 39.3866C21.8708 39.2405 21.0388 38.9116 20.4908 38.3991C19.9427 37.8875 19.6682 37.1923 19.6682 36.3143C19.6682 35.4364 20.0158 34.7234 20.711 34.1753C21.4063 33.6273 22.3291 33.3245 23.4816 33.2702L25.1822 34.0657H24.7437C24.0307 34.1022 23.5276 34.2213 23.2353 34.4227C22.9419 34.6242 22.7968 34.8706 22.7968 35.1629C22.7968 35.474 22.9242 35.7078 23.181 35.8623C23.4367 36.0179 23.8209 36.0961 24.3335 36.0961H28.695H28.6929ZM26.2794 25.1506C27.6688 25.1506 28.8579 25.3343 29.8454 25.6986C30.833 26.064 31.5877 26.5901 32.1086 27.276C32.6296 27.9619 32.8905 28.8085 32.8905 29.8138C32.8905 30.8191 32.6296 31.6428 32.1086 32.338C31.5877 33.0333 30.833 33.5584 29.8454 33.9154C28.8579 34.2724 27.6688 34.4509 26.2794 34.4509C24.1028 34.4509 22.4523 34.049 21.328 33.2441C20.2026 32.4393 19.641 31.2962 19.641 29.8148C19.641 28.8095 19.902 27.9629 20.4229 27.277C20.9438 26.5912 21.6986 26.0661 22.6862 25.6997C23.6737 25.3343 24.8711 25.1516 26.2794 25.1516V25.1506ZM26.1144 42.0215C26.9924 42.0215 27.7189 41.962 28.2952 41.843C28.8714 41.724 29.3057 41.559 29.598 41.3492C29.8903 41.1394 30.0365 40.8961 30.0365 40.6226C30.0365 40.3491 29.9352 40.133 29.7348 39.9785C29.5333 39.823 29.1679 39.7447 28.6376 39.7447H23.7269C23.3793 39.7447 23.1006 39.8355 22.8897 40.0192C22.6788 40.2019 22.5745 40.4305 22.5745 40.7051C22.5745 41.1258 22.8855 41.4494 23.5077 41.6791C24.1289 41.9077 24.9985 42.0215 26.1144 42.0215ZM26.2794 27.8115C25.676 27.8115 25.1864 27.9859 24.8116 28.3325C24.4368 28.6801 24.2489 29.1739 24.2489 29.8138C24.2489 30.4537 24.4358 30.9204 24.8116 31.268C25.1864 31.6156 25.676 31.7899 26.2794 31.7899C26.8827 31.7899 27.3494 31.6167 27.7335 31.268C28.1177 30.9214 28.3098 30.436 28.3098 29.8138C28.3098 29.1916 28.1177 28.6801 27.7335 28.3325C27.3494 27.9859 26.865 27.8115 26.2794 27.8115ZM33.4115 21.7484L33.7956 24.876C33.686 24.8395 33.5764 24.8165 33.4668 24.8071C33.3572 24.7977 33.2476 24.7935 33.138 24.7935C32.3331 24.7935 31.7339 24.9898 31.3414 25.3834C30.9478 25.7769 30.7515 26.2655 30.7515 26.8511L29.1053 26.2477C29.1053 25.4982 29.242 24.7758 29.5166 24.0805C29.7911 23.3853 30.216 22.8184 30.7923 22.3789C31.3685 21.9405 32.0951 21.7202 32.973 21.7202H33.1787C33.2611 21.7202 33.3384 21.7296 33.4125 21.7474L33.4115 21.7484Z" fill="#006838"/>
<path id="Vector_7" d="M35.4971 39.1417V25.4256H39.6122L39.8043 28.3882C40.1509 27.3641 40.6687 26.5687 41.3545 26.0018C42.0404 25.435 42.9131 25.151 43.9748 25.151C44.3214 25.151 44.62 25.1781 44.8663 25.2335C45.1127 25.2878 45.31 25.3619 45.4561 25.4527L44.9895 29.2933C44.8068 29.2202 44.573 29.1607 44.2901 29.1148C44.0061 29.0699 43.6637 29.0459 43.2618 29.0459C42.7127 29.0459 42.2012 29.1649 41.7251 29.4029C41.2491 29.6409 40.8702 29.9927 40.5873 30.4594C40.3033 30.926 40.1613 31.5158 40.1613 32.2288V39.1417H35.4981H35.4971Z" fill="#006838"/>
</g>
<g id="Group_3">
<path id="Vector_8" d="M61.1334 44.9029V25.4253H65.3311L65.5774 30.3902L65.0294 29.814C65.1567 28.9005 65.4407 28.0957 65.8802 27.3994C66.3197 26.7052 66.8865 26.1561 67.5818 25.7541C68.276 25.3522 69.0715 25.1508 69.9682 25.1508C71.1019 25.1508 72.0894 25.4295 72.9309 25.988C73.7712 26.5454 74.4258 27.3503 74.8924 28.4026C75.359 29.4549 75.5918 30.7295 75.5918 32.2286C75.5918 33.7277 75.3538 35.018 74.8788 36.0963C74.4028 37.1758 73.7409 37.9984 72.8901 38.5652C72.0393 39.1321 71.0476 39.416 69.9139 39.416C68.6706 39.416 67.6642 39.0454 66.8959 38.3053C66.1276 37.5652 65.6161 36.6277 65.3592 35.494L65.7987 34.8353V44.9029H61.1345H61.1334ZM68.3209 35.9878C69.1257 35.9878 69.7563 35.6903 70.2135 35.0963C70.6708 34.5023 70.8994 33.5648 70.8994 32.285C70.8994 31.0051 70.6749 30.0677 70.2271 29.4737C69.7792 28.8797 69.1529 28.5821 68.348 28.5821C67.8365 28.5821 67.3876 28.7241 67.0045 29.0081C66.6203 29.292 66.3228 29.7075 66.113 30.2556C65.9031 30.8036 65.7977 31.4811 65.7977 32.285C65.7977 33.0888 65.8937 33.7162 66.0858 34.2736C66.2779 34.8311 66.566 35.257 66.9502 35.5493C67.3344 35.8416 67.7916 35.9888 68.3219 35.9888L68.3209 35.9878Z" fill="#006838"/>
<path id="Vector_9" d="M85.0005 39.415C83.5004 39.415 82.1976 39.131 81.092 38.5642C79.9855 37.9973 79.1347 37.1883 78.5407 36.1371C77.9467 35.0848 77.6492 33.8007 77.6492 32.2829C77.6492 30.765 77.9456 29.4799 78.5407 28.4287C79.1347 27.3775 79.9761 26.5684 81.0649 26.0016C82.1527 25.4347 83.4012 25.1508 84.8095 25.1508C86.2177 25.1508 87.4788 25.4295 88.4851 25.988C89.4904 26.5454 90.264 27.3138 90.8037 28.2919C91.3434 29.2701 91.6128 30.3902 91.6128 31.6523C91.6128 32 91.6034 32.334 91.5856 32.6535C91.5668 32.974 91.5397 33.2433 91.5031 33.4625H80.64V30.9393H89.4727L87.223 31.8173C87.223 30.7201 87.0257 29.8787 86.6332 29.2931C86.2397 28.7074 85.6321 28.4151 84.8095 28.4151C84.2238 28.4151 83.7259 28.5529 83.3146 28.8264C82.9033 29.101 82.5922 29.5259 82.3813 30.1021C82.1715 30.6784 82.066 31.4237 82.066 32.3382C82.066 33.2527 82.185 33.9834 82.4231 34.5325C82.66 35.0816 82.9993 35.4846 83.4378 35.7393C83.8772 35.9961 84.4076 36.1235 85.0287 36.1235C85.7229 36.1235 86.2762 35.9867 86.6885 35.7122C87.0998 35.4376 87.4057 35.0535 87.6072 34.5597L91.3382 35.8218C91.0814 36.5901 90.6388 37.2436 90.0082 37.7833C89.3777 38.323 88.6323 38.7291 87.7721 39.0037C86.9119 39.2782 85.9891 39.415 85.0016 39.415H85.0005Z" fill="#006838"/>
<path id="Vector_10" d="M98.8268 19.6101V34.4788C98.8268 35.0822 98.927 35.5123 99.1285 35.768C99.33 36.0248 99.6682 36.1522 100.143 36.1522C100.418 36.1522 100.646 36.1344 100.829 36.0969C101.012 36.0603 101.231 36.006 101.488 35.933L101.186 38.7307C100.857 38.9322 100.427 39.0971 99.8968 39.2245C99.3665 39.3518 98.8445 39.4166 98.3341 39.4166C96.8705 39.4166 95.8098 39.0783 95.1511 38.4019C94.4924 37.7254 94.1636 36.6188 94.1636 35.0832V19.6112H98.8268V19.6101Z" fill="#006838"/>
<path id="Vector_11" d="M107.797 19.6101V34.4788C107.797 35.0822 107.897 35.5123 108.099 35.768C108.3 36.0248 108.638 36.1522 109.113 36.1522C109.388 36.1522 109.617 36.1344 109.799 36.0969C109.982 36.0603 110.201 36.006 110.458 35.933L110.156 38.7307C109.827 38.9322 109.397 39.0971 108.867 39.2245C108.337 39.3518 107.815 39.4166 107.304 39.4166C105.841 39.4166 104.78 39.0783 104.121 38.4019C103.463 37.7254 103.134 36.6188 103.134 35.0832V19.6112H107.797V19.6101Z" fill="#006838"/>
<path id="Vector_12" d="M118.825 39.415C117.325 39.415 116.022 39.131 114.916 38.5642C113.81 37.9973 112.959 37.1883 112.365 36.1371C111.771 35.0848 111.473 33.8007 111.473 32.2829C111.473 30.765 111.77 29.4799 112.365 28.4287C112.959 27.3775 113.8 26.5684 114.889 26.0016C115.977 25.4347 117.225 25.1508 118.634 25.1508C120.042 25.1508 121.303 25.4295 122.309 25.988C123.315 26.5454 124.088 27.3138 124.628 28.2919C125.168 29.2701 125.437 30.3902 125.437 31.6523C125.437 32 125.428 32.334 125.41 32.6535C125.391 32.974 125.364 33.2433 125.327 33.4625H114.464V30.9393H123.297L121.047 31.8173C121.047 30.7201 120.85 29.8787 120.457 29.2931C120.064 28.7074 119.456 28.4151 118.634 28.4151C118.048 28.4151 117.55 28.5529 117.139 28.8264C116.727 29.101 116.416 29.5259 116.206 30.1021C115.996 30.6784 115.89 31.4237 115.89 32.3382C115.89 33.2527 116.009 33.9834 116.247 34.5325C116.484 35.0816 116.824 35.4846 117.262 35.7393C117.701 35.9961 118.232 36.1235 118.853 36.1235C119.547 36.1235 120.1 35.9867 120.513 35.7122C120.924 35.4376 121.23 35.0535 121.431 34.5597L125.162 35.8218C124.906 36.5901 124.463 37.2436 123.832 37.7833C123.202 38.323 122.457 38.7291 121.596 39.0037C120.736 39.2782 119.813 39.415 118.826 39.415H118.825Z" fill="#006838"/>
<path id="Vector_13" d="M128.041 39.1415V25.4253H132.156L132.348 28.388C132.695 27.3639 133.213 26.5684 133.898 26.0016C134.584 25.4347 135.457 25.1508 136.519 25.1508C136.865 25.1508 137.163 25.1779 137.41 25.2332C137.658 25.2875 137.854 25.3616 138 25.4525L137.533 29.2931C137.35 29.22 137.117 29.1605 136.833 29.1146C136.549 29.0697 136.206 29.0457 135.805 29.0457C135.257 29.0457 134.744 29.1647 134.268 29.4027C133.793 29.6407 133.413 29.9925 133.13 30.4591C132.846 30.9258 132.705 31.5156 132.705 32.2286V39.1415H128.041Z" fill="#006838"/>
</g>
</g>
</svg>
