<svg width="144" height="47" viewBox="0 0 144 47" fill="none" xmlns="http://www.w3.org/2000/svg">
<path d="M58.6568 44.8842C56.9593 45.8418 55.6647 45.1413 54.8992 44.065C54.688 43.7687 54.4877 43.4626 54.3026 43.1488C53.0809 41.0746 52.3383 38.8098 51.7078 36.5047C50.9228 33.6363 50.4361 30.7157 50.2455 27.746C50.2346 27.5793 50.2314 27.4126 50.2227 27.1959C52.078 27.3201 53.781 26.8887 55.3783 25.7938C55.8019 26.7198 56.2331 27.6011 56.612 28.5042C58.1963 32.2789 59.3668 36.1659 59.7457 40.263C59.7794 40.6258 59.7903 40.9918 59.7936 41.3568C59.8012 42.3459 59.7598 43.3275 59.3036 44.2382C59.088 44.4539 58.8735 44.6685 58.6579 44.8842H58.6568Z" fill="#3DB54A"/>
<path d="M57.8753 16.3337C57.0489 14.6441 55.8305 13.4185 54.1123 12.5938C54.5707 11.9282 54.9986 11.2713 55.4625 10.6416C57.3429 8.08704 59.4335 5.72198 61.8213 3.62819C63.3664 2.27299 64.9648 0.987516 66.9008 0.216231C67.8709 -0.170501 68.7834 -0.0441324 69.5859 0.64218C70.4308 1.36553 70.691 2.46254 70.2718 3.54757C69.7644 4.86464 68.9848 6.02483 68.117 7.12402C65.2958 10.7016 61.9171 13.6691 58.141 16.1964C58.0681 16.2454 57.9842 16.277 57.8743 16.3337H57.8753Z" fill="#3DB54A"/>
<path d="M44.6689 15.1375C43.6051 16.7029 43.1652 18.3926 43.3024 20.3001C42.2234 20.1955 41.1803 20.1236 40.1459 19.9885C36.164 19.4689 32.2812 18.5603 28.627 16.8522C27.7548 16.4447 26.9295 15.9033 26.1531 15.3292C25.2636 14.6701 24.9707 13.7169 25.2668 12.6471C25.5706 11.5534 26.3502 10.9532 27.4587 10.7908C28.8567 10.5849 30.2526 10.6786 31.6398 10.8889C36.1378 11.573 40.4028 12.9859 44.4642 15.0275C44.5165 15.0536 44.5666 15.083 44.6689 15.1386V15.1375Z" fill="#3DB54A"/>
<path d="M54.1418 22.8035C52.3637 24.5749 49.4706 24.5727 47.6936 22.7992C45.9058 21.0136 45.9123 18.1006 47.7078 16.3151C49.4946 14.5383 52.3615 14.5438 54.1483 16.3282C55.9492 18.1279 55.9471 21.006 54.1418 22.8035Z" fill="#6ABD45"/>
<path d="M19.1419 40.846H14.0777L12.7612 36.5811H6.2946L4.94988 40.846H0L6.63868 21.9528H12.5326L19.1419 40.846ZM7.21032 33.2312H11.8455L9.52847 25.5881L7.21141 33.2312H7.21032Z" fill="white"/>
<path d="M29.9278 37.6684C31.5872 37.6684 32.86 38.017 33.7474 38.7131C34.6348 39.4103 35.078 40.4071 35.078 41.7045C35.078 42.8876 34.7535 43.8702 34.1046 44.6535C33.4556 45.4357 32.5453 46.0229 31.3727 46.414C30.2 46.805 28.8117 47 27.21 47C24.6153 47 22.7468 46.6754 21.6014 46.0261C20.457 45.3769 19.8843 44.4999 19.8843 43.3931C19.8843 42.5913 20.2088 41.942 20.8577 41.4464C21.5056 40.9496 22.5835 40.6838 24.0905 40.6446L23.9762 41.1021C22.8122 40.9496 21.9444 40.6064 21.3727 40.0716C20.8011 39.5378 20.5147 38.8122 20.5147 37.8961C20.5147 36.9799 20.8773 36.2358 21.6025 35.6639C22.3276 35.092 23.2902 34.776 24.4923 34.7194L26.266 35.5495H25.8087C25.065 35.5876 24.5402 35.7118 24.2353 35.9221C23.9293 36.1323 23.778 36.3894 23.778 36.6945C23.778 37.0191 23.9108 37.2631 24.1787 37.4243C24.4454 37.5867 24.8461 37.6684 25.3808 37.6684H29.9299H29.9278ZM27.4104 26.2462C28.8596 26.2462 30.0998 26.4379 31.1298 26.8181C32.1599 27.1994 32.9471 27.7484 33.4905 28.4642C34.0338 29.1799 34.306 30.0634 34.306 31.1124C34.306 32.1615 34.0338 33.0211 33.4905 33.7466C32.9471 34.4721 32.1599 35.0201 31.1298 35.3926C30.0998 35.7652 28.8596 35.9515 27.4104 35.9515C25.1401 35.9515 23.4187 35.5321 22.246 34.6922C21.0722 33.8523 20.4864 32.6594 20.4864 31.1135C20.4864 30.0645 20.7586 29.181 21.302 28.4652C21.8453 27.7495 22.6325 27.2016 23.6626 26.8192C24.6926 26.4379 25.9415 26.2473 27.4104 26.2473V26.2462ZM27.2383 43.8517C28.154 43.8517 28.9119 43.7896 29.5129 43.6654C30.114 43.5412 30.5669 43.3691 30.8718 43.1502C31.1767 42.9312 31.3291 42.6774 31.3291 42.3919C31.3291 42.1065 31.2235 41.881 31.0144 41.7198C30.8043 41.5575 30.4232 41.4758 29.8701 41.4758H24.7481C24.3856 41.4758 24.0948 41.5705 23.8749 41.7623C23.6549 41.9529 23.5461 42.1915 23.5461 42.478C23.5461 42.917 23.8705 43.2547 24.5195 43.4944C25.1673 43.733 26.0744 43.8517 27.2383 43.8517ZM27.4104 29.023C26.781 29.023 26.2703 29.2049 25.8794 29.5666C25.4886 29.9294 25.2926 30.4447 25.2926 31.1124C25.2926 31.7802 25.4875 32.2672 25.8794 32.63C26.2703 32.9927 26.781 33.1747 27.4104 33.1747C28.0397 33.1747 28.5264 32.9938 28.9271 32.63C29.3278 32.2683 29.5282 31.7617 29.5282 31.1124C29.5282 30.4632 29.3278 29.9294 28.9271 29.5666C28.5264 29.2049 28.0212 29.023 27.4104 29.023ZM34.8493 22.6959L35.25 25.9597C35.1357 25.9215 35.0214 25.8976 34.907 25.8878C34.7927 25.878 34.6784 25.8736 34.5641 25.8736C33.7246 25.8736 33.0996 26.0784 32.6902 26.4891C32.2797 26.8998 32.075 27.4096 32.075 28.0208L30.3579 27.3911C30.3579 26.6089 30.5005 25.8551 30.7869 25.1295C31.0732 24.404 31.5164 23.8125 32.1174 23.3538C32.7185 22.8963 33.4763 22.6664 34.392 22.6664H34.6065C34.6925 22.6664 34.7731 22.6762 34.8504 22.6948L34.8493 22.6959Z" fill="white"/>
<path d="M37.0249 40.8461V26.5327H41.3171L41.5175 29.6243C41.879 28.5557 42.419 27.7255 43.1344 27.134C43.8498 26.5425 44.76 26.2462 45.8674 26.2462C46.2289 26.2462 46.5403 26.2745 46.7973 26.3322C47.0542 26.3889 47.26 26.4662 47.4125 26.561L46.9258 30.5688C46.7352 30.4926 46.4913 30.4305 46.1962 30.3826C45.9001 30.3357 45.5429 30.3107 45.1237 30.3107C44.551 30.3107 44.0175 30.4348 43.5209 30.6832C43.0244 30.9316 42.6292 31.2987 42.3341 31.7857C42.0379 32.2726 41.8899 32.8881 41.8899 33.6322V40.8461H37.026H37.0249Z" fill="white"/>
<path d="M63.7637 46.8579V26.5322H68.1419L68.3989 31.7133L67.8272 31.112C67.9601 30.1587 68.2562 29.3188 68.7146 28.5922C69.173 27.8678 69.7643 27.2947 70.4895 26.8753C71.2135 26.4559 72.0432 26.2457 72.9786 26.2457C74.161 26.2457 75.1911 26.5365 76.0687 27.1194C76.9452 27.7011 77.6279 28.541 78.1146 29.6391C78.6013 30.7372 78.8441 32.0673 78.8441 33.6317C78.8441 35.1961 78.5959 36.5425 78.1005 37.6679C77.604 38.7943 76.9136 39.6527 76.0262 40.2443C75.1388 40.8358 74.1044 41.1321 72.9219 41.1321C71.6251 41.1321 70.5755 40.7454 69.7741 39.973C68.9727 39.2006 68.4392 38.2224 68.1713 37.0393L68.6297 36.3519V46.8579H63.7648H63.7637ZM71.2604 37.5546C72.0999 37.5546 72.7575 37.2441 73.2344 36.6242C73.7113 36.0044 73.9498 35.0261 73.9498 33.6905C73.9498 32.3549 73.7157 31.3767 73.2486 30.7568C72.7815 30.137 72.1282 29.8265 71.2887 29.8265C70.7551 29.8265 70.2869 29.9746 69.8873 30.2709C69.4866 30.5673 69.1763 31.0008 68.9575 31.5728C68.7386 32.1447 68.6286 32.8517 68.6286 33.6905C68.6286 34.5294 68.7288 35.1841 68.9291 35.7658C69.1295 36.3475 69.43 36.792 69.8307 37.097C70.2314 37.4021 70.7083 37.5557 71.2614 37.5557L71.2604 37.5546Z" fill="white"/>
<path d="M88.6579 41.1321C87.0932 41.1321 85.7343 40.8358 84.5812 40.2443C83.4271 39.6527 82.5397 38.8085 81.9201 37.7115C81.3006 36.6134 80.9902 35.2734 80.9902 33.6894C80.9902 32.1055 81.2995 30.7644 81.9201 29.6674C82.5397 28.5704 83.4173 27.7261 84.5529 27.1346C85.6875 26.5431 86.9898 26.2468 88.4586 26.2468C89.9275 26.2468 91.2428 26.5376 92.2924 27.1205C93.341 27.7022 94.1478 28.504 94.7107 29.5247C95.2737 30.5455 95.5546 31.7144 95.5546 33.0315C95.5546 33.3942 95.5448 33.7428 95.5263 34.0762C95.5067 34.4106 95.4784 34.6917 95.4403 34.9205H84.1098V32.2874H93.3225L90.976 33.2036C90.976 32.0586 90.7702 31.1806 90.3608 30.5694C89.9503 29.9583 89.3166 29.6533 88.4586 29.6533C87.8478 29.6533 87.3284 29.7971 86.8994 30.0825C86.4704 30.369 86.1459 30.8124 85.926 31.4137C85.7071 32.0151 85.5971 32.7929 85.5971 33.7472C85.5971 34.7015 85.7213 35.4641 85.9695 36.0371C86.2167 36.6101 86.5706 37.0306 87.0279 37.2964C87.4863 37.5644 88.0394 37.6973 88.6873 37.6973C89.4113 37.6973 89.9884 37.5546 90.4185 37.2681C90.8475 36.9816 91.1666 36.5807 91.3767 36.0654L95.2682 37.3825C95.0004 38.1842 94.5387 38.8662 93.8811 39.4294C93.2234 39.9926 92.4459 40.4164 91.5487 40.7029C90.6515 40.9894 89.689 41.1321 88.659 41.1321H88.6579Z" fill="white"/>
<path d="M103.079 20.4643V35.9804C103.079 36.6101 103.183 37.0589 103.393 37.3258C103.604 37.5938 103.956 37.7267 104.452 37.7267C104.738 37.7267 104.977 37.7082 105.167 37.669C105.358 37.6308 105.586 37.5742 105.854 37.4979L105.539 40.4175C105.197 40.6277 104.748 40.7999 104.195 40.9328C103.642 41.0657 103.097 41.1332 102.565 41.1332C101.038 41.1332 99.9319 40.7802 99.2449 40.0743C98.5578 39.3684 98.2148 38.2136 98.2148 36.6112V20.4654H103.079V20.4643Z" fill="white"/>
<path d="M112.435 20.4643V35.9804C112.435 36.6101 112.54 37.0589 112.75 37.3258C112.96 37.5938 113.313 37.7267 113.808 37.7267C114.095 37.7267 114.333 37.7082 114.524 37.669C114.714 37.6308 114.943 37.5742 115.211 37.4979L114.896 40.4175C114.553 40.6277 114.104 40.7999 113.551 40.9328C112.998 41.0657 112.454 41.1332 111.921 41.1332C110.395 41.1332 109.288 40.7802 108.601 40.0743C107.914 39.3684 107.571 38.2136 107.571 36.6112V20.4654H112.435V20.4643Z" fill="white"/>
<path d="M123.937 41.1321C122.372 41.1321 121.013 40.8358 119.86 40.2443C118.706 39.6527 117.818 38.8085 117.199 37.7115C116.579 36.6134 116.269 35.2734 116.269 33.6894C116.269 32.1055 116.578 30.7644 117.199 29.6674C117.818 28.5704 118.696 27.7261 119.832 27.1346C120.966 26.5431 122.269 26.2468 123.737 26.2468C125.206 26.2468 126.522 26.5376 127.571 27.1205C128.62 27.7022 129.427 28.504 129.99 29.5247C130.552 30.5455 130.833 31.7144 130.833 33.0315C130.833 33.3942 130.824 33.7428 130.805 34.0762C130.785 34.4106 130.757 34.6917 130.719 34.9205H119.389V32.2874H128.601L126.255 33.2036C126.255 32.0586 126.049 31.1806 125.64 30.5694C125.229 29.9583 124.595 29.6533 123.737 29.6533C123.127 29.6533 122.607 29.7971 122.178 30.0825C121.749 30.369 121.425 30.8124 121.205 31.4137C120.986 32.0151 120.876 32.7929 120.876 33.7472C120.876 34.7015 121 35.4641 121.248 36.0371C121.495 36.6101 121.849 37.0306 122.307 37.2964C122.765 37.5644 123.318 37.6973 123.966 37.6973C124.69 37.6973 125.267 37.5546 125.697 37.2681C126.126 36.9816 126.445 36.5807 126.656 36.0654L130.547 37.3825C130.279 38.1842 129.818 38.8662 129.16 39.4294C128.502 39.9926 127.725 40.4164 126.828 40.7029C125.93 40.9894 124.968 41.1321 123.938 41.1321H123.937Z" fill="white"/>
<path d="M133.55 40.8456V26.5322H137.843L138.043 29.6239C138.404 28.5552 138.944 27.7251 139.66 27.1335C140.375 26.542 141.285 26.2457 142.393 26.2457C142.754 26.2457 143.065 26.274 143.323 26.3317C143.581 26.3884 143.785 26.4657 143.938 26.5605L143.451 30.5683C143.26 30.4921 143.017 30.43 142.721 30.3821C142.424 30.3352 142.067 30.3102 141.648 30.3102C141.076 30.3102 140.542 30.4344 140.045 30.6827C139.55 30.9311 139.153 31.2982 138.858 31.7852C138.562 32.2721 138.415 32.8877 138.415 33.6317V40.8456H133.55Z" fill="white"/>
</svg>
