<svg width="149" height="49" viewBox="0 0 149 49" fill="none" xmlns="http://www.w3.org/2000/svg">
<path d="M60.7201 46.463C58.9629 47.4542 57.6227 46.7291 56.8303 45.615C56.6117 45.3082 56.4043 44.9914 56.2126 44.6666C54.948 42.5194 54.1793 40.1749 53.5267 37.7887C52.714 34.8195 52.2102 31.7961 52.0129 28.722C52.0017 28.5495 51.9983 28.3769 51.9893 28.1525C53.9099 28.2811 55.6727 27.8345 57.3263 26.7012C57.7647 27.6597 58.2111 28.572 58.6033 29.5069C60.2433 33.4144 61.455 37.438 61.8472 41.6793C61.8822 42.0548 61.8934 42.4337 61.8968 42.8115C61.9047 43.8355 61.8619 44.8515 61.3896 45.7943C61.1664 46.0176 60.9444 46.2397 60.7212 46.463H60.7201Z" fill="white"/>
<path d="M59.911 16.9081C59.0555 15.159 57.7943 13.8904 56.0156 13.0367C56.4902 12.3477 56.9331 11.6677 57.4133 11.0159C59.3598 8.37141 61.524 5.92317 63.9958 3.75573C65.5952 2.35287 67.2498 1.02218 69.2539 0.223773C70.2582 -0.176561 71.2027 -0.0457478 72.0334 0.664704C72.9081 1.4135 73.1774 2.54909 72.7435 3.67228C72.2183 5.03567 71.4112 6.23667 70.5129 7.37452C67.5925 11.0779 64.095 14.1497 60.186 16.766C60.1105 16.8168 60.0237 16.8495 59.9099 16.9081H59.911Z" fill="white"/>
<path d="M46.24 15.6699C45.1388 17.2904 44.6834 19.0395 44.8255 21.0141C43.7085 20.9058 42.6287 20.8314 41.5579 20.6915C37.4359 20.1536 33.4166 19.2131 29.6339 17.4449C28.731 17.0231 27.8767 16.4627 27.073 15.8684C26.1521 15.1861 25.8489 14.1994 26.1555 13.092C26.47 11.9598 27.277 11.3384 28.4245 11.1704C29.8717 10.9572 31.3167 11.0542 32.7527 11.2719C37.4089 11.9801 41.8239 13.4427 46.0281 15.556C46.0822 15.5831 46.1341 15.6135 46.24 15.671V15.6699Z" fill="white"/>
<path d="M56.0459 23.6054C54.2053 25.4391 51.2105 25.4368 49.371 23.6009C47.5203 21.7526 47.527 18.7371 49.3857 16.8888C51.2353 15.0496 54.2031 15.0552 56.0527 16.9024C57.917 18.7653 57.9147 21.7447 56.0459 23.6054Z" fill="white"/>
<path d="M19.8151 42.2828H14.5728L13.2101 37.8679H6.51599L5.12398 42.2828H0L6.87217 22.7251H12.9734L19.8151 42.2828ZM7.46392 34.4002H12.2622L9.8636 26.4882L7.46505 34.4002H7.46392Z" fill="white"/>
<path d="M30.9807 38.9934C32.6985 38.9934 34.0161 39.3543 34.9347 40.0749C35.8533 40.7966 36.3121 41.8285 36.3121 43.1716C36.3121 44.3962 35.9762 45.4134 35.3044 46.2243C34.6327 47.0339 33.6904 47.6418 32.4764 48.0466C31.2625 48.4515 29.8254 48.6533 28.1674 48.6533C25.4814 48.6533 23.5472 48.3173 22.3615 47.6452C21.1769 46.973 20.584 46.0652 20.584 44.9195C20.584 44.0895 20.9199 43.4174 21.5916 42.9043C22.2623 42.3901 23.3782 42.1149 24.9381 42.0743L24.8198 42.5479C23.6149 42.3901 22.7165 42.0348 22.1248 41.4811C21.533 40.9286 21.2366 40.1775 21.2366 39.2291C21.2366 38.2807 21.6119 37.5105 22.3626 36.9185C23.1133 36.3264 24.1097 35.9994 25.354 35.9407L27.1901 36.8001H26.7168C25.9469 36.8395 25.4036 36.9681 25.088 37.1857C24.7713 37.4034 24.6146 37.6695 24.6146 37.9853C24.6146 38.3213 24.7521 38.5739 25.0294 38.7408C25.3056 38.9089 25.7204 38.9934 26.2738 38.9934H30.983H30.9807ZM28.3748 27.1695C29.875 27.1695 31.1588 27.368 32.2251 27.7615C33.2914 28.1562 34.1063 28.7246 34.6687 29.4655C35.2312 30.2064 35.5129 31.121 35.5129 32.2069C35.5129 33.2929 35.2312 34.1827 34.6687 34.9337C34.1063 35.6848 33.2914 36.252 32.2251 36.6377C31.1588 37.0233 29.875 37.2162 28.3748 37.2162C26.0247 37.2162 24.2427 36.782 23.0288 35.9126C21.8137 35.0431 21.2073 33.8083 21.2073 32.2081C21.2073 31.1221 21.4891 30.2075 22.0515 29.4666C22.614 28.7257 23.4289 28.1585 24.4952 27.7627C25.5614 27.368 26.8543 27.1706 28.3748 27.1706V27.1695ZM28.1967 45.3943C29.1446 45.3943 29.9291 45.33 30.5513 45.2014C31.1735 45.0729 31.6424 44.8947 31.9579 44.668C32.2735 44.4414 32.4313 44.1786 32.4313 43.8831C32.4313 43.5877 32.322 43.3543 32.1056 43.1874C31.8881 43.0193 31.4936 42.9347 30.921 42.9347H25.6189C25.2436 42.9347 24.9426 43.0329 24.715 43.2313C24.4873 43.4287 24.3746 43.6756 24.3746 43.9722C24.3746 44.4267 24.7104 44.7763 25.3822 45.0244C26.0529 45.2713 26.9918 45.3943 28.1967 45.3943ZM28.3748 30.044C27.7233 30.044 27.1947 30.2323 26.79 30.6067C26.3854 30.9822 26.1825 31.5157 26.1825 32.2069C26.1825 32.8982 26.3842 33.4023 26.79 33.7778C27.1947 34.1533 27.7233 34.3417 28.3748 34.3417C29.0263 34.3417 29.5301 34.1545 29.9449 33.7778C30.3597 33.4034 30.5671 32.879 30.5671 32.2069C30.5671 31.5348 30.3597 30.9822 29.9449 30.6067C29.5301 30.2323 29.0071 30.044 28.3748 30.044ZM36.0754 23.4943L36.4902 26.8729C36.3718 26.8334 36.2535 26.8086 36.1351 26.7985C36.0168 26.7883 35.8984 26.7838 35.7801 26.7838C34.9111 26.7838 34.2641 26.9958 33.8403 27.421C33.4153 27.8461 33.2034 28.3739 33.2034 29.0065L31.4259 28.3547C31.4259 27.545 31.5736 26.7646 31.87 26.0136C32.1665 25.2625 32.6252 24.6502 33.2474 24.1754C33.8696 23.7018 34.6541 23.4639 35.602 23.4639H35.824C35.9131 23.4639 35.9965 23.474 36.0765 23.4932L36.0754 23.4943Z" fill="white"/>
<path d="M38.3271 42.2829V27.466H42.7703L42.9777 30.6664C43.3519 29.5602 43.911 28.7009 44.6515 28.0885C45.3921 27.4762 46.3343 27.1694 47.4806 27.1694C47.8549 27.1694 48.1772 27.1988 48.4432 27.2585C48.7092 27.3172 48.9223 27.3972 49.0801 27.4953L48.5762 31.6441C48.379 31.5652 48.1265 31.5009 47.821 31.4513C47.5145 31.4028 47.1448 31.3769 46.7108 31.3769C46.1179 31.3769 45.5656 31.5054 45.0517 31.7626C44.5377 32.0197 44.1285 32.3997 43.8231 32.9038C43.5165 33.4079 43.3632 34.045 43.3632 34.8152V42.2829H38.3283H38.3271Z" fill="white"/>
<path d="M66.0068 48.5062V27.4655H70.5391L70.8051 32.8289L70.2133 32.2064C70.3508 31.2196 70.6574 30.3502 71.1319 29.598C71.6065 28.8481 72.2185 28.2549 72.9692 27.8208C73.7187 27.3866 74.5776 27.1689 75.5458 27.1689C76.7699 27.1689 77.8362 27.47 78.7446 28.0734C79.652 28.6756 80.3587 29.545 80.8625 30.6817C81.3664 31.8185 81.6177 33.1954 81.6177 34.8148C81.6177 36.4341 81.3607 37.828 80.8479 38.9929C80.3339 40.1589 79.6193 41.0476 78.7007 41.6599C77.7821 42.2722 76.7113 42.579 75.4872 42.579C74.1448 42.579 73.0582 42.1786 72.2286 41.3791C71.3991 40.5796 70.8468 39.5669 70.5695 38.3422L71.044 37.6306V48.5062H66.008H66.0068ZM73.7672 38.8756C74.6362 38.8756 75.317 38.5542 75.8107 37.9126C76.3044 37.2709 76.5512 36.2582 76.5512 34.8757C76.5512 33.4931 76.3089 32.4804 75.8253 31.8388C75.3418 31.1971 74.6655 30.8757 73.7965 30.8757C73.2442 30.8757 72.7595 31.0291 72.3459 31.3358C71.9311 31.6425 71.6098 32.0914 71.3833 32.6834C71.1567 33.2754 71.0429 34.0073 71.0429 34.8757C71.0429 35.744 71.1466 36.4217 71.354 37.0239C71.5614 37.6261 71.8725 38.0862 72.2873 38.402C72.702 38.7177 73.1957 38.8767 73.7683 38.8767L73.7672 38.8756Z" fill="white"/>
<path d="M91.7762 42.5788C90.1565 42.5788 88.7498 42.2721 87.5562 41.6597C86.3614 41.0474 85.4428 40.1734 84.8014 39.0378C84.1601 37.9011 83.8389 36.5141 83.8389 34.8744C83.8389 33.2347 84.159 31.8465 84.8014 30.7109C85.4428 29.5753 86.3513 28.7013 87.5269 28.089C88.7013 27.4767 90.0494 27.1699 91.5699 27.1699C93.0904 27.1699 94.452 27.471 95.5386 28.0743C96.624 28.6765 97.4592 29.5065 98.042 30.5632C98.6247 31.6198 98.9155 32.8299 98.9155 34.1932C98.9155 34.5688 98.9053 34.9296 98.8862 35.2747C98.8659 35.6209 98.8366 35.9119 98.7971 36.1487H87.0681V33.423H96.6048L94.1759 34.3714C94.1759 33.1862 93.9628 32.2773 93.539 31.6446C93.1141 31.012 92.4581 30.6962 91.5699 30.6962C90.9376 30.6962 90.3999 30.8451 89.9559 31.1406C89.5118 31.4371 89.1759 31.8961 88.9482 32.5186C88.7216 33.1411 88.6078 33.9463 88.6078 34.9341C88.6078 35.922 88.7363 36.7114 88.9933 37.3046C89.2491 37.8977 89.6155 38.333 90.0889 38.6082C90.5634 38.8856 91.136 39.0232 91.8066 39.0232C92.5562 39.0232 93.1535 38.8755 93.5988 38.5789C94.0429 38.2823 94.3731 37.8673 94.5907 37.3339L98.619 38.6973C98.3418 39.5273 97.8639 40.2332 97.1831 40.8162C96.5023 41.3993 95.6975 41.8379 94.7687 42.1345C93.84 42.4311 92.8436 42.5788 91.7773 42.5788H91.7762Z" fill="white"/>
<path d="M106.705 21.1841V37.2459C106.705 37.8977 106.813 38.3623 107.031 38.6386C107.248 38.916 107.613 39.0536 108.126 39.0536C108.423 39.0536 108.669 39.0345 108.867 38.9939C109.064 38.9544 109.301 38.8957 109.578 38.8168L109.252 41.839C108.897 42.0567 108.433 42.2349 107.86 42.3724C107.288 42.51 106.724 42.5799 106.173 42.5799C104.593 42.5799 103.447 42.2146 102.736 41.4838C102.025 40.7531 101.67 39.5577 101.67 37.8989V21.1852H106.705V21.1841Z" fill="white"/>
<path d="M116.39 21.1841V37.2459C116.39 37.8977 116.499 38.3623 116.716 38.6386C116.934 38.916 117.299 39.0536 117.812 39.0536C118.108 39.0536 118.355 39.0345 118.552 38.9939C118.75 38.9544 118.986 38.8957 119.263 38.8168L118.938 41.839C118.583 42.0567 118.118 42.2349 117.546 42.3724C116.973 42.51 116.41 42.5799 115.858 42.5799C114.278 42.5799 113.133 42.2146 112.422 41.4838C111.711 40.7531 111.355 39.5577 111.355 37.8989V21.1852H116.39V21.1841Z" fill="white"/>
<path d="M128.296 42.5788C126.676 42.5788 125.269 42.2721 124.076 41.6597C122.881 41.0474 121.962 40.1734 121.321 39.0378C120.68 37.9011 120.358 36.5141 120.358 34.8744C120.358 33.2347 120.679 31.8465 121.321 30.7109C121.962 29.5753 122.871 28.7013 124.046 28.089C125.221 27.4767 126.569 27.1699 128.089 27.1699C129.61 27.1699 130.972 27.471 132.058 28.0743C133.144 28.6765 133.979 29.5065 134.561 30.5632C135.144 31.6198 135.435 32.8299 135.435 34.1932C135.435 34.5688 135.425 34.9296 135.406 35.2747C135.385 35.6209 135.356 35.9119 135.317 36.1487H123.588V33.423H133.124L130.695 34.3714C130.695 33.1862 130.482 32.2773 130.059 31.6446C129.634 31.012 128.978 30.6962 128.089 30.6962C127.457 30.6962 126.919 30.8451 126.475 31.1406C126.031 31.4371 125.695 31.8961 125.468 32.5186C125.241 33.1411 125.127 33.9463 125.127 34.9341C125.127 35.922 125.256 36.7114 125.513 37.3046C125.769 37.8977 126.135 38.333 126.608 38.6082C127.083 38.8856 127.656 39.0232 128.326 39.0232C129.076 39.0232 129.673 38.8755 130.118 38.5789C130.562 38.2823 130.893 37.8673 131.11 37.3339L135.139 38.6973C134.861 39.5273 134.383 40.2332 133.703 40.8162C133.022 41.3993 132.217 41.8379 131.288 42.1345C130.36 42.4311 129.363 42.5788 128.297 42.5788H128.296Z" fill="white"/>
<path d="M138.247 42.2824V27.4655H142.69L142.898 30.6659C143.272 29.5597 143.831 28.7004 144.571 28.088C145.312 27.4757 146.254 27.1689 147.401 27.1689C147.775 27.1689 148.096 27.1983 148.363 27.258C148.63 27.3167 148.842 27.3967 149 27.4949L148.496 31.6437C148.298 31.5647 148.046 31.5004 147.74 31.4508C147.433 31.4023 147.064 31.3764 146.63 31.3764C146.038 31.3764 145.484 31.505 144.97 31.7621C144.458 32.0192 144.047 32.3992 143.742 32.9033C143.435 33.4074 143.283 34.0445 143.283 34.8148V42.2824H138.247Z" fill="white"/>
</svg>
