<svg width="42" height="45" viewBox="0 0 42 45" fill="none" xmlns="http://www.w3.org/2000/svg">
<path d="M12.2076 32.8807C12.4076 33.6237 12.9658 33.7847 13.4836 33.6921C13.6262 33.6667 13.7687 33.6356 13.909 33.5981C14.8365 33.3493 15.6849 32.9134 16.5135 32.4349C17.5448 31.8397 18.5081 31.1468 19.403 30.3577C19.4533 30.3135 19.5015 30.2671 19.5654 30.2081C19.0148 29.728 18.6642 29.1327 18.5309 28.3786C18.1507 28.5235 17.7811 28.6536 17.4198 28.8044C15.9095 29.4347 14.4824 30.2116 13.2155 31.268C13.1032 31.3615 12.9964 31.4623 12.892 31.5649C12.6095 31.8432 12.3427 32.133 12.2112 32.5179C12.2099 32.639 12.2086 32.7594 12.2073 32.8804L12.2076 32.8807Z" fill="#3DB54A"/>
<path d="M20.5191 25C21.2277 24.7505 21.9136 24.7414 22.6246 24.9848C22.686 24.6687 22.7534 24.3636 22.8031 24.0563C23.0051 22.8097 23.095 21.5585 23.0255 20.3016C22.9806 19.4882 22.9011 18.6798 22.5821 17.9234C22.4223 17.5443 22.133 17.3267 21.7156 17.2984C21.2758 17.2688 20.8925 17.5076 20.7013 17.9317C20.4688 18.446 20.3563 18.9915 20.2857 19.5442C20.0549 21.3421 20.152 23.1219 20.4842 24.8873C20.4906 24.9214 20.5049 24.9537 20.5194 25.0003L20.5191 25Z" fill="#3DB54A"/>
<path d="M24.5261 28.3296C24.3777 29.0689 24.0208 29.6702 23.4419 30.1729C23.7712 30.4429 24.0813 30.7123 24.4069 30.9613C25.6602 31.9199 26.9962 32.7407 28.4955 33.2713C28.8532 33.398 29.236 33.4738 29.6144 33.5266C30.0483 33.5868 30.4 33.3979 30.621 33.0123C30.8467 32.6178 30.8004 32.2311 30.5386 31.8772C30.2086 31.4306 29.7944 31.0694 29.3495 30.7437C27.9062 29.6884 26.321 28.9045 24.6141 28.3553C24.5922 28.3482 24.57 28.3426 24.5258 28.3299L24.5261 28.3296Z" fill="#3DB54A"/>
<path d="M19.7229 27.8726C19.7145 28.8687 20.5187 29.6716 21.5151 29.6623C22.5179 29.6526 23.342 28.8249 23.3496 27.82C23.3571 26.8199 22.5593 26.0252 21.5571 26.0348C20.5466 26.0449 19.7312 26.8616 19.7229 27.8726Z" fill="#6ABD45"/>
<path d="M0.737835 38.5828L3.68174 10.5374C3.74482 9.91477 4.36514 9.44335 5.09061 9.44335H11.1466C11.2308 4.76467 15.7518 0.984375 21.3031 0.984375C26.8545 0.984375 31.3755 4.76467 31.4596 9.44335H37.5156C38.2516 9.44335 38.8614 9.91477 38.9245 10.5374L41.8684 38.5828C41.8684 38.6184 41.8789 38.6539 41.8789 38.6895C41.8789 41.8828 38.4198 44.48 34.1617 44.48H8.44456C4.18641 44.48 0.727322 41.8828 0.727322 38.6895C0.727322 38.6539 0.727322 38.6184 0.737835 38.5828ZM21.3031 3.38598C17.3183 3.38598 14.0695 6.09 13.9854 9.44335H28.6208C28.5367 6.09 25.2879 3.38598 21.3031 3.38598ZM8.44456 42.0784H34.1617C36.8322 42.0784 38.9981 40.5841 39.0401 38.7429L36.2224 11.8538H31.4701V15.5007C31.4701 16.1678 30.8393 16.7015 30.0507 16.7015C29.2622 16.7015 28.6313 16.1678 28.6313 15.5007V11.8538H13.9854V15.5007C13.9854 16.1678 13.3546 16.7015 12.566 16.7015C11.7775 16.7015 11.1466 16.1678 11.1466 15.5007V11.8538H6.39434L3.56608 38.7429C3.60814 40.5841 5.78453 42.0784 8.44456 42.0784Z" fill="#006838"/>
</svg>
