<svg width="66" height="66" viewBox="0 0 66 66" fill="none" xmlns="http://www.w3.org/2000/svg">
<circle cx="33" cy="33" r="33" fill="#E9F2E9"/>
<path d="M24.2076 42.8807C24.4076 43.6237 24.9658 43.7847 25.4836 43.6921C25.6262 43.6667 25.7687 43.6356 25.909 43.5981C26.8365 43.3493 27.6849 42.9134 28.5135 42.4349C29.5448 41.8397 30.5081 41.1468 31.403 40.3577C31.4533 40.3135 31.5015 40.2671 31.5654 40.2081C31.0148 39.728 30.6642 39.1327 30.5309 38.3786C30.1507 38.5235 29.7811 38.6536 29.4198 38.8044C27.9095 39.4347 26.4824 40.2116 25.2155 41.268C25.1032 41.3615 24.9964 41.4623 24.892 41.5649C24.6095 41.8432 24.3427 42.133 24.2112 42.5179C24.2099 42.639 24.2086 42.7594 24.2073 42.8804L24.2076 42.8807Z" fill="#3DB54A"/>
<path d="M32.5191 35C33.2277 34.7505 33.9136 34.7414 34.6246 34.9848C34.686 34.6687 34.7534 34.3636 34.8031 34.0563C35.0051 32.8097 35.095 31.5585 35.0255 30.3016C34.9806 29.4882 34.9011 28.6798 34.5821 27.9234C34.4223 27.5443 34.133 27.3267 33.7156 27.2984C33.2758 27.2688 32.8925 27.5076 32.7013 27.9317C32.4688 28.446 32.3563 28.9915 32.2857 29.5442C32.0549 31.3421 32.152 33.1219 32.4842 34.8873C32.4906 34.9214 32.5049 34.9537 32.5194 35.0003L32.5191 35Z" fill="#3DB54A"/>
<path d="M36.5261 38.3296C36.3777 39.0689 36.0208 39.6702 35.4419 40.1729C35.7712 40.4429 36.0813 40.7123 36.4069 40.9613C37.6602 41.9199 38.9962 42.7407 40.4955 43.2713C40.8532 43.398 41.236 43.4738 41.6144 43.5266C42.0483 43.5868 42.4 43.3979 42.621 43.0123C42.8467 42.6178 42.8004 42.2311 42.5386 41.8772C42.2086 41.4306 41.7944 41.0694 41.3495 40.7437C39.9062 39.6884 38.321 38.9045 36.6141 38.3553C36.5922 38.3482 36.57 38.3426 36.5258 38.3299L36.5261 38.3296Z" fill="#3DB54A"/>
<path d="M31.7229 37.8726C31.7145 38.8687 32.5187 39.6716 33.5151 39.6623C34.5179 39.6526 35.342 38.8249 35.3496 37.82C35.3571 36.8199 34.5593 36.0252 33.5571 36.0348C32.5466 36.0449 31.7312 36.8616 31.7229 37.8726Z" fill="#6ABD45"/>
<path d="M12.7378 48.5828L15.6817 20.5374C15.7448 19.9148 16.3651 19.4433 17.0906 19.4433H23.1466C23.2308 14.7647 27.7518 10.9844 33.3031 10.9844C38.8545 10.9844 43.3755 14.7647 43.4596 19.4433H49.5156C50.2516 19.4433 50.8614 19.9148 50.9245 20.5374L53.8684 48.5828C53.8684 48.6184 53.8789 48.6539 53.8789 48.6895C53.8789 51.8828 50.4198 54.48 46.1617 54.48H20.4446C16.1864 54.48 12.7273 51.8828 12.7273 48.6895C12.7273 48.6539 12.7273 48.6184 12.7378 48.5828ZM33.3031 13.386C29.3183 13.386 26.0695 16.09 25.9854 19.4433H40.6208C40.5367 16.09 37.2879 13.386 33.3031 13.386ZM20.4446 52.0784H46.1617C48.8322 52.0784 50.9981 50.5841 51.0401 48.7429L48.2224 21.8538H43.4701V25.5007C43.4701 26.1678 42.8393 26.7015 42.0507 26.7015C41.2622 26.7015 40.6313 26.1678 40.6313 25.5007V21.8538H25.9854V25.5007C25.9854 26.1678 25.3546 26.7015 24.566 26.7015C23.7775 26.7015 23.1466 26.1678 23.1466 25.5007V21.8538H18.3943L15.5661 48.7429C15.6081 50.5841 17.7845 52.0784 20.4446 52.0784Z" fill="#006838"/>
</svg>
