<svg width="66" height="67" viewBox="0 0 66 67" fill="none" xmlns="http://www.w3.org/2000/svg">
<circle cx="33" cy="33.0566" r="33" fill="#F5F5F5"/>
<path d="M50.9361 41.9257C50.7368 41.3783 50.1318 41.096 49.5844 41.2953L46.3463 42.4739C46.0955 41.7849 39.8765 24.6975 39.4932 23.6445C39.3976 23.3817 39.2015 23.1676 38.9479 23.0494C38.6944 22.9312 38.4043 22.9185 38.1415 23.0143L25.2388 27.7107C23.5153 22.9888 22.1357 19.2086 21.969 18.7506C21.8733 18.4877 21.6771 18.2736 21.4236 18.1554C21.1702 18.0372 20.8801 18.0246 20.6172 18.1203C20.2714 18.2461 16.1316 19.9141 15.6607 20.1039C15.1204 20.3215 14.859 20.936 15.0767 21.4762C15.2944 22.0165 15.9088 22.2778 16.449 22.0602C17.6669 21.5695 19.3165 20.9061 20.3582 20.49C22.0073 25.0097 28.4318 42.6086 30.3246 47.7935C28.8848 48.0894 27.7987 49.3667 27.7987 50.8928C27.7987 52.6373 29.2179 54.0566 30.9624 54.0566C32.7069 54.0566 34.1262 52.6373 34.1262 50.8928C34.1262 50.3202 33.9726 49.7833 33.7056 49.3196L50.3058 43.2774C50.8532 43.0781 51.1353 42.4729 50.9361 41.9257ZM44.3643 43.1954L32.4715 47.5241C31.9346 46.0535 30.8523 43.0886 29.5783 39.5987L41.4788 35.2671L44.3643 43.1954ZM37.872 25.3569L40.7575 33.2851L28.8551 37.6173C27.9123 35.0345 26.9063 32.2786 25.9621 29.6919L37.872 25.3569ZM30.9624 51.9474C30.3809 51.9474 29.9079 51.4743 29.9079 50.8928C29.9079 50.3112 30.3809 49.8381 30.9624 49.8381C31.5439 49.8381 32.017 50.3112 32.017 50.8928C32.017 51.4743 31.5439 51.9474 30.9624 51.9474Z" fill="#868889"/>
</svg>
