<svg width="67" height="66" viewBox="0 0 67 66" fill="none" xmlns="http://www.w3.org/2000/svg">
<circle cx="33.5" cy="33" r="33" fill="#F5F5F5"/>
<path d="M27.4253 45.0806L15.5416 39.5785C15.2762 39.4557 14.9635 39.4999 14.7427 39.6916C14.5219 39.8833 14.4341 40.1866 14.5184 40.4666L16.1097 45.7547L14.5183 51.0428C14.3657 51.5014 14.7499 52.0139 15.2297 51.9995C15.3354 51.9995 15.4419 51.977 15.5416 51.9308L27.4253 46.4287C27.9913 46.178 27.9956 45.3327 27.4253 45.0806ZM16.4169 49.8886L17.5965 45.9687C17.6386 45.8292 17.6386 45.6803 17.5965 45.5406L16.4169 41.6208L25.3454 45.7547L16.4169 49.8886Z" fill="#5A5A5A"/>
<path d="M45.831 13.9727C42.1452 13.9727 39.1465 16.9714 39.1465 20.6572C39.1903 24.2645 42.8956 28.1842 45.2712 30.9141C45.551 31.25 46.1111 31.2508 46.3908 30.9141C48.7659 28.1856 52.4725 24.2632 52.5156 20.6573C52.5156 16.9714 49.5169 13.9727 45.831 13.9727ZM45.831 29.3006C43.8737 27.0797 40.6319 23.3891 40.6319 20.6572C40.6319 17.7904 42.9643 15.4581 45.831 15.4581C48.6978 15.4581 51.0302 17.7904 51.0302 20.6572C51.0302 23.3891 47.7883 27.0797 45.831 29.3006Z" fill="#5A5A5A"/>
<path d="M45.8303 17.6855C44.1921 17.6855 42.8594 19.0183 42.8594 20.6565C43.0087 24.5924 48.6524 24.5913 48.8012 20.6564C48.8012 19.0183 47.4685 17.6855 45.8303 17.6855ZM45.8303 22.142C45.0112 22.142 44.3448 21.4756 44.3448 20.6565C44.4196 18.6885 47.2413 18.689 47.3158 20.6565C47.3158 21.4755 46.6493 22.142 45.8303 22.142Z" fill="#5A5A5A"/>
<path d="M29.1189 31.1691H30.6043C31.5881 31.1328 31.5886 29.72 30.6043 29.6836H29.1189C28.1351 29.7198 28.1346 31.1327 29.1189 31.1691Z" fill="#5A5A5A"/>
<path d="M23.1766 31.1695C23.1952 31.1694 23.2137 31.169 23.2324 31.1691H24.6623C25.6459 31.133 25.6467 29.72 24.6623 29.6836H23.2324C23.2094 29.6836 23.1865 29.6837 23.1637 29.6842C22.1894 29.734 22.2024 31.137 23.1766 31.1695Z" fill="#5A5A5A"/>
<path d="M31.476 37.0357C31.476 36.6255 31.1434 36.293 30.7332 36.293H29.2478C28.264 36.3292 28.2635 37.742 29.2478 37.7784H30.7332C31.1434 37.7784 31.476 37.4459 31.476 37.0357Z" fill="#5A5A5A"/>
<path d="M24.7918 36.293H23.3064C22.3226 36.3292 22.3221 37.742 23.3064 37.7784H24.7918C25.7756 37.7422 25.7761 36.3293 24.7918 36.293Z" fill="#5A5A5A"/>
<path d="M20.0258 35.2739C20.5008 35.2796 20.8694 34.8113 20.7468 34.3505C20.6538 33.981 20.6463 33.584 20.7246 33.211C20.8928 32.2422 19.5051 31.9513 19.2706 32.9069C19.1463 33.4987 19.1584 34.1252 19.3059 34.7115C19.3904 35.0489 19.6931 35.2739 20.0258 35.2739Z" fill="#5A5A5A"/>
<path d="M41.0017 31.1691H42.4871C43.4709 31.1328 43.4714 29.72 42.4871 29.6836H41.0017C40.0179 29.7198 40.0174 31.1327 41.0017 31.1691Z" fill="#5A5A5A"/>
<path d="M43.178 44.5819C42.8145 44.7784 42.4242 44.9097 42.0178 44.9721C41.0485 45.1567 41.2701 46.5574 42.2434 46.4404C42.8187 46.352 43.3709 46.1663 43.8846 45.8885C44.733 45.3912 44.0592 44.1439 43.178 44.5819Z" fill="#5A5A5A"/>
<path d="M42.4091 37.9031C43.3616 38.1286 43.7412 36.7618 42.7973 36.4693C42.2615 36.3173 41.6886 36.2809 41.1314 36.2932C40.7212 36.2932 40.3887 36.6258 40.3887 37.036C40.3887 37.4462 40.7212 37.7787 41.1314 37.7787H41.4702C41.7884 37.7788 42.1043 37.8206 42.4091 37.9031Z" fill="#5A5A5A"/>
<path d="M45.4428 39.4563C45.0494 39.5724 44.8246 39.9855 44.9407 40.3789C45.0378 40.7078 45.087 41.0496 45.087 41.395C44.926 42.7027 46.7018 42.71 46.5724 41.395C46.5724 40.9072 46.5028 40.4239 46.3655 39.9584C46.2493 39.565 45.8364 39.3403 45.4428 39.4563Z" fill="#5A5A5A"/>
<path d="M31.7352 45.0137H30.2497C29.266 45.0499 29.2655 46.4627 30.2497 46.4991H31.7352C32.7189 46.4629 32.7194 45.0501 31.7352 45.0137Z" fill="#5A5A5A"/>
<path d="M37.6766 45.0137H36.1911C35.2074 45.0499 35.2069 46.4627 36.1911 46.4991H37.6766C38.6603 46.4629 38.6609 45.0501 37.6766 45.0137Z" fill="#5A5A5A"/>
<path d="M35.0603 31.1691H36.5458C37.5295 31.1328 37.53 29.72 36.5458 29.6836H35.0603C34.0765 29.7198 34.076 31.1327 35.0603 31.1691Z" fill="#5A5A5A"/>
<path d="M37.4174 37.0357C37.4174 36.6255 37.0848 36.293 36.6746 36.293H35.1892C34.2054 36.3292 34.2049 37.742 35.1892 37.7784H36.6746C37.0848 37.7784 37.4174 37.4459 37.4174 37.0357Z" fill="#5A5A5A"/>
</svg>
