<svg width="42" height="45" viewBox="0 0 42 45" fill="none" xmlns="http://www.w3.org/2000/svg">
<path d="M12.2079 32.8798C12.4078 33.6228 12.966 33.7838 13.4838 33.6912C13.6265 33.6659 13.7689 33.6347 13.9093 33.5972C14.8367 33.3484 15.6851 32.9125 16.5138 32.434C17.5451 31.8388 18.5084 31.1459 19.4033 30.3568C19.4536 30.3126 19.5017 30.2662 19.5656 30.2072C19.0151 29.7271 18.6644 29.1318 18.5312 28.3777C18.151 28.5226 17.7813 28.6527 17.42 28.8035C15.9098 29.4338 14.4826 30.2107 13.2157 31.2672C13.1035 31.3606 12.9966 31.4614 12.8923 31.564C12.6097 31.8423 12.3429 32.1321 12.2114 32.517C12.2101 32.6381 12.2091 32.7588 12.2079 32.8798Z" fill="#F91919"/>
<path d="M20.5198 25.0006C21.2284 24.7511 21.9143 24.742 22.6254 24.9854C22.6868 24.6693 22.7542 24.3642 22.8039 24.0569C23.0059 22.8103 23.0958 21.5591 23.0263 20.3022C22.9814 19.4888 22.9019 18.6804 22.5829 17.924C22.4231 17.5449 22.1338 17.3273 21.7163 17.299C21.2766 17.2694 20.8932 17.5082 20.702 17.9323C20.4695 18.4466 20.3571 18.9921 20.2865 19.5448C20.0557 21.3427 20.1528 23.1225 20.485 24.8879C20.4913 24.922 20.5053 24.954 20.5198 25.0006Z" fill="#F91919"/>
<path d="M24.5268 28.3292C24.3785 29.0685 24.0216 29.6697 23.4426 30.1725C23.772 30.4425 24.0821 30.7119 24.4077 30.9609C25.661 31.9195 26.997 32.7403 28.4962 33.2709C28.854 33.3976 29.2367 33.4734 29.6151 33.5262C30.0491 33.5864 30.4007 33.3975 30.6217 33.0119C30.8475 32.6174 30.8011 32.2307 30.5393 31.8768C30.2094 31.4301 29.7951 31.069 29.3502 30.7433C27.9069 29.688 26.3217 28.904 24.6149 28.3548C24.593 28.3477 24.571 28.3419 24.5268 28.3292Z" fill="#F91919"/>
<path d="M19.7225 27.8726C19.7141 28.8687 20.5183 29.6716 21.5147 29.6623C22.5175 29.6527 23.3416 28.8249 23.3492 27.82C23.3567 26.8199 22.5589 26.0252 21.5567 26.0349C20.5462 26.0449 19.7307 26.8616 19.7225 27.8726Z" fill="#F91919"/>
<path d="M0.737077 38.5828L3.68098 10.5374C3.74407 9.91477 4.36439 9.44335 5.08985 9.44335H11.1459C11.23 4.76467 15.751 0.984375 21.3024 0.984375C26.8537 0.984375 31.3747 4.76467 31.4588 9.44335H37.5149C38.2508 9.44335 38.8606 9.91477 38.9237 10.5374L41.8676 38.5828C41.8676 38.6184 41.8781 38.6539 41.8781 38.6895C41.8781 41.8828 38.4191 44.48 34.1609 44.48H8.4438C4.18565 44.48 0.726562 41.8828 0.726562 38.6895C0.726562 38.6539 0.726563 38.6184 0.737077 38.5828ZM21.3024 3.38598C17.3176 3.38598 14.0688 6.09 13.9846 9.44335H28.6201C28.536 6.09 25.2871 3.38598 21.3024 3.38598ZM8.4438 42.0784H34.1609C36.8315 42.0784 38.9973 40.5841 39.0394 38.7429L36.2216 11.8538H31.4693V15.5007C31.4693 16.1678 30.8385 16.7015 30.05 16.7015C29.2614 16.7015 28.6306 16.1678 28.6306 15.5007V11.8538H13.9846V15.5007C13.9846 16.1678 13.3538 16.7015 12.5653 16.7015C11.7767 16.7015 11.1459 16.1678 11.1459 15.5007V11.8538H6.39358L3.56533 38.7429C3.60738 40.5841 5.78377 42.0784 8.4438 42.0784Z" fill="#F91919"/>
</svg>
