<svg width="66" height="66" viewBox="0 0 66 66" fill="none" xmlns="http://www.w3.org/2000/svg">
<circle cx="33" cy="33" r="33" fill="#F5F5F5"/>
<path d="M22.9173 42.9993H19.2507C18.7447 42.9993 18.334 42.5887 18.334 42.0827C18.334 41.5767 18.7447 41.166 19.2507 41.166H22.9173C23.4233 41.166 23.834 41.5767 23.834 42.0827C23.834 42.5887 23.4233 42.9993 22.9173 42.9993Z" fill="#868889"/>
<path d="M52.7093 43H50.4177C49.9117 43 49.501 42.5893 49.501 42.0833C49.501 41.5773 49.9117 41.1667 50.4177 41.1667H51.9485L53.1842 34.5813C53.1677 31.2117 50.2893 28.3333 46.751 28.3333H40.7322L37.8153 41.1667H43.0843C43.5903 41.1667 44.001 41.5773 44.001 42.0833C44.001 42.5893 43.5903 43 43.0843 43H36.6677C36.389 43 36.125 42.8735 35.9508 42.6553C35.7767 42.439 35.7107 42.153 35.773 41.8817L39.106 27.215C39.2013 26.7952 39.5717 26.5 40.0007 26.5H46.751C51.2995 26.5 55.001 30.2015 55.001 34.75L53.6095 42.252C53.5288 42.6865 53.1512 43 52.7093 43Z" fill="#868889"/>
<path d="M46.7494 46.6667C44.223 46.6667 42.166 44.6115 42.166 42.0833C42.166 39.5552 44.223 37.5 46.7494 37.5C49.2757 37.5 51.3327 39.5552 51.3327 42.0833C51.3327 44.6115 49.2757 46.6667 46.7494 46.6667ZM46.7494 39.3333C45.2332 39.3333 43.9993 40.5672 43.9993 42.0833C43.9993 43.5995 45.2332 44.8333 46.7494 44.8333C48.2655 44.8333 49.4994 43.5995 49.4994 42.0833C49.4994 40.5672 48.2655 39.3333 46.7494 39.3333Z" fill="#868889"/>
<path d="M26.5833 46.6667C24.057 46.6667 22 44.6115 22 42.0833C22 39.5552 24.057 37.5 26.5833 37.5C29.1097 37.5 31.1667 39.5552 31.1667 42.0833C31.1667 44.6115 29.1097 46.6667 26.5833 46.6667ZM26.5833 39.3333C25.0672 39.3333 23.8333 40.5672 23.8333 42.0833C23.8333 43.5995 25.0672 44.8333 26.5833 44.8333C28.0995 44.8333 29.3333 43.5995 29.3333 42.0833C29.3333 40.5672 28.0995 39.3333 26.5833 39.3333Z" fill="#868889"/>
<path d="M22.916 26.4993H15.5827C15.0767 26.4993 14.666 26.0887 14.666 25.5827C14.666 25.0767 15.0767 24.666 15.5827 24.666H22.916C23.422 24.666 23.8327 25.0767 23.8327 25.5827C23.8327 26.0887 23.422 26.4993 22.916 26.4993Z" fill="#868889"/>
<path d="M22.9173 31.9993H13.7507C13.2447 31.9993 12.834 31.5887 12.834 31.0827C12.834 30.5767 13.2447 30.166 13.7507 30.166H22.9173C23.4233 30.166 23.834 30.5767 23.834 31.0827C23.834 31.5887 23.4233 31.9993 22.9173 31.9993Z" fill="#868889"/>
<path d="M22.9167 37.4993H11.9167C11.4107 37.4993 11 37.0887 11 36.5827C11 36.0767 11.4107 35.666 11.9167 35.666H22.9167C23.4227 35.666 23.8333 36.0767 23.8333 36.5827C23.8333 37.0887 23.4227 37.4993 22.9167 37.4993Z" fill="#868889"/>
<path d="M36.6673 43H30.2507C29.7447 43 29.334 42.5893 29.334 42.0833C29.334 41.5773 29.7447 41.1667 30.2507 41.1667H35.9358L40.1012 22.8333H19.2507C18.7447 22.8333 18.334 22.4227 18.334 21.9167C18.334 21.4107 18.7447 21 19.2507 21H41.2507C41.5293 21 41.7933 21.1265 41.9675 21.3447C42.1417 21.561 42.2077 21.847 42.1453 22.1183L37.562 42.285C37.4667 42.7048 37.0945 43 36.6673 43Z" fill="#868889"/>
</svg>
