<svg width="67" height="66" viewBox="0 0 67 66" fill="none" xmlns="http://www.w3.org/2000/svg">
<circle cx="33.5" cy="33" r="33" fill="#E9F2E9"/>
<g clip-path="url(#clip0_1255_18250)">
<path d="M45.757 23.5534C45.3745 23.1703 44.7539 23.1696 44.3715 23.5518L32.616 35.2763L28.3746 30.6698C28.0081 30.2719 27.3885 30.2461 26.99 30.6126C26.5918 30.9791 26.5663 31.599 26.9328 31.9972L31.865 37.3536C32.0456 37.55 32.2984 37.664 32.565 37.6695C32.5721 37.6698 32.579 37.6698 32.5859 37.6698C32.8449 37.6698 33.0941 37.5669 33.2777 37.384L45.7551 24.9393C46.1385 24.5572 46.1392 23.9366 45.757 23.5534Z" fill="#006300"/>
<path d="M45.5201 32.0201C44.9788 32.0201 44.5402 32.4587 44.5402 33C44.5402 39.0878 39.5878 44.0402 33.5 44.0402C27.4125 44.0402 22.4598 39.0878 22.4598 33C22.4598 26.9125 27.4125 21.9598 33.5 21.9598C34.0412 21.9598 34.4799 21.5212 34.4799 20.9799C34.4799 20.4386 34.0412 20 33.5 20C26.3317 20 20.5 25.8317 20.5 33C20.5 40.168 26.3317 46 33.5 46C40.668 46 46.5 40.168 46.5 33C46.5 32.4588 46.0614 32.0201 45.5201 32.0201Z" fill="#006300"/>
</g>
<defs>
<clipPath id="clip0_1255_18250">
<rect width="26" height="26" fill="white" transform="translate(20.5 20)"/>
</clipPath>
</defs>
</svg>
