<svg width="77" height="71" viewBox="0 0 77 71" fill="none" xmlns="http://www.w3.org/2000/svg">
<path d="M74.2604 40.9622C81.9636 26.7674 70.9388 1.00957 57.352 0.340368C39.4473 -2.47531 43.8704 13.0796 28.43 13.904C12.9896 14.7284 8.76947 7.83661 2.10515 20.0463C-4.47462 32.1012 7.38291 37.2396 16.4995 59.46C21.6739 72.0712 46.188 76.032 52.9358 58.5408C59.6836 41.0496 64.6324 58.7056 74.2604 40.9622Z" fill="#5FC544"/>
<path d="M46.596 55.6427L35.794 44.8406L39.3523 41.2823L46.596 48.526L60.9565 34.1656L64.5148 37.724L46.596 55.6427ZM60.5752 30.4167H55.4919V17.7083H50.4085V25.3333H24.9919V17.7083H19.9085V53.2917H35.1585V58.375H19.9085C18.5106 58.375 17.3135 57.8768 16.3172 56.8805C15.3208 55.8842 14.8235 54.6879 14.8252 53.2917V17.7083C14.8252 16.3104 15.3234 15.1133 16.3197 14.117C17.316 13.1206 18.5123 12.6233 19.9085 12.625H30.52C30.986 11.1424 31.8967 9.92405 33.2523 8.97008C34.6078 8.01611 36.0905 7.53997 37.7002 7.54166C39.3946 7.54166 40.9095 8.01865 42.2447 8.97262C43.5799 9.92659 44.4797 11.144 44.944 12.625H55.4919C56.8898 12.625 58.0869 13.1232 59.0832 14.1195C60.0796 15.1158 60.5769 16.3121 60.5752 17.7083V30.4167ZM37.7002 17.7083C38.4203 17.7083 39.0244 17.4643 39.5124 16.9763C40.0004 16.4883 40.2436 15.8851 40.2419 15.1667C40.2419 14.4465 39.9979 13.8425 39.5099 13.3545C39.0219 12.8665 38.4186 12.6233 37.7002 12.625C36.9801 12.625 36.376 12.869 35.888 13.357C35.4 13.845 35.1568 14.4482 35.1585 15.1667C35.1585 15.8868 35.4025 16.4909 35.8905 16.9789C36.3785 17.4669 36.9818 17.71 37.7002 17.7083Z" fill="black"/>
</svg>
