<svg width="77" height="71" viewBox="0 0 77 71" fill="none" xmlns="http://www.w3.org/2000/svg">
<path d="M74.2604 40.9622C81.9636 26.7674 70.9388 1.00957 57.352 0.340368C39.4473 -2.47531 43.8704 13.0796 28.43 13.904C12.9896 14.7284 8.76947 7.83661 2.10515 20.0463C-4.47462 32.1012 7.38291 37.2396 16.4995 59.46C21.6739 72.0712 46.188 76.032 52.9358 58.5408C59.6836 41.0496 64.6324 58.7056 74.2604 40.9622Z" fill="#5FC544"/>
<path d="M49.9375 31.0521L61.375 36.7708L38.5 48.2083L15.625 36.7708L27.0625 31.0521M49.9375 43.7604L61.375 49.4792L38.5 60.9167L15.625 49.4792L27.0625 43.7604M38.5 12.625L61.375 24.0625L38.5 35.5L15.625 24.0625L38.5 12.625Z" stroke="black" stroke-width="4"/>
</svg>
