<svg width="77" height="71" viewBox="0 0 77 71" fill="none" xmlns="http://www.w3.org/2000/svg">
<path d="M74.2604 40.9622C81.9636 26.7674 70.9388 1.00957 57.352 0.340368C39.4473 -2.47531 43.8704 13.0796 28.43 13.904C12.9896 14.7284 8.76947 7.83661 2.10515 20.0463C-4.47462 32.1012 7.38291 37.2396 16.4995 59.46C21.6739 72.0712 46.188 76.032 52.9358 58.5408C59.6836 41.0496 64.6324 58.7056 74.2604 40.9622Z" fill="#5FC544"/>
<g clip-path="url(#clip0_1174_606)">
<path d="M34.9576 63.3313V58.2479C29.6624 57.6549 25.1188 55.4631 21.3266 51.6726C17.5344 47.8822 15.3427 43.3385 14.7513 38.0417H9.66797V32.9583H14.7513C15.3444 27.6632 17.537 23.1196 21.3291 19.3274C25.1213 15.5352 29.6641 13.3435 34.9576 12.7521V7.66876H40.0409V12.7521C45.336 13.3452 49.8797 15.5378 53.6718 19.3299C57.464 23.1221 59.6558 27.6649 60.2471 32.9583H65.3305V38.0417H60.2471C59.6541 43.3368 57.4623 47.8805 53.6718 51.6726C49.8814 55.4648 45.3377 57.6566 40.0409 58.2479V63.3313H34.9576ZM37.4992 53.2917C42.4131 53.2917 46.6069 51.5549 50.0805 48.0813C53.5541 44.6077 55.2909 40.4139 55.2909 35.5C55.2909 30.5861 53.5541 26.3924 50.0805 22.9188C46.6069 19.4452 42.4131 17.7083 37.4992 17.7083C32.5853 17.7083 28.3916 19.4452 24.918 22.9188C21.4444 26.3924 19.7076 30.5861 19.7076 35.5C19.7076 40.4139 21.4444 44.6077 24.918 48.0813C28.3916 51.5549 32.5853 53.2917 37.4992 53.2917ZM37.4992 45.6667C34.7034 45.6667 32.31 44.6712 30.319 42.6802C28.328 40.6892 27.3326 38.2958 27.3326 35.5C27.3326 32.7042 28.328 30.3108 30.319 28.3198C32.31 26.3288 34.7034 25.3333 37.4992 25.3333C40.295 25.3333 42.6884 26.3288 44.6794 28.3198C46.6704 30.3108 47.6659 32.7042 47.6659 35.5C47.6659 38.2958 46.6704 40.6892 44.6794 42.6802C42.6884 44.6712 40.295 45.6667 37.4992 45.6667ZM37.4992 40.5833C38.8971 40.5833 40.0943 40.086 41.0906 39.0914C42.0869 38.0967 42.5842 36.8996 42.5826 35.5C42.5826 34.1021 42.0844 32.905 41.088 31.9086C40.0917 30.9123 38.8954 30.415 37.4992 30.4167C36.1013 30.4167 34.9042 30.9148 33.9078 31.9112C32.9115 32.9075 32.4142 34.1038 32.4159 35.5C32.4159 36.8979 32.9141 38.0951 33.9104 39.0914C34.9067 40.0877 36.103 40.585 37.4992 40.5833Z" fill="black"/>
</g>
<defs>
<clipPath id="clip0_1174_606">
<rect width="61" height="61" fill="white" transform="translate(7.2002 5)"/>
</clipPath>
</defs>
</svg>
