<svg width="121" height="30" viewBox="0 0 121 30" fill="none" xmlns="http://www.w3.org/2000/svg">
<path d="M49.3099 28.1222C47.8829 28.7221 46.7945 28.2833 46.1511 27.6089C45.9735 27.4233 45.8051 27.2315 45.6495 27.0349C44.6225 25.7353 43.9982 24.3163 43.4682 22.872C42.8083 21.0748 42.3991 19.2449 42.2389 17.3843C42.2298 17.2798 42.227 17.1754 42.2197 17.0396C43.7794 17.1174 45.211 16.8471 46.5538 16.1611C46.9099 16.7413 47.2723 17.2935 47.5909 17.8593C48.9227 20.2244 49.9067 22.6597 50.2252 25.2268C50.2536 25.4541 50.2627 25.6834 50.2655 25.9121C50.2719 26.5318 50.2371 27.1468 49.8536 27.7174C49.6723 27.8526 49.492 27.987 49.3108 28.1222H49.3099Z" fill="#3DB54A"/>
<path d="M48.6526 10.2338C47.9579 9.17517 46.9336 8.4073 45.4893 7.8906C45.8746 7.47356 46.2343 7.06198 46.6243 6.66747C48.205 5.06688 49.9625 3.58506 51.9698 2.2732C53.2686 1.4241 54.6123 0.618688 56.2398 0.135441C57.0553 -0.106865 57.8224 -0.0276893 58.497 0.402319C59.2073 0.855534 59.426 1.54286 59.0736 2.22269C58.6471 3.04789 57.9917 3.77481 57.2622 4.46351C54.8906 6.70501 52.0503 8.56428 48.876 10.1478C48.8146 10.1785 48.7442 10.1983 48.6517 10.2338H48.6526Z" fill="#3DB54A"/>
<path d="M37.5505 9.48444C36.6562 10.4653 36.2864 11.5239 36.4018 12.7191C35.4947 12.6535 34.6178 12.6085 33.7482 12.5238C30.4009 12.1983 27.1368 11.629 24.065 10.5588C23.3318 10.3035 22.638 9.96427 21.9853 9.60457C21.2375 9.19162 20.9913 8.59439 21.2403 7.92412C21.4956 7.23884 22.151 6.86275 23.0828 6.76105C24.2581 6.63205 25.4315 6.69075 26.5977 6.82248C30.3789 7.25112 33.9642 8.13639 37.3784 9.4155C37.4223 9.43188 37.4645 9.45031 37.5505 9.48512V9.48444Z" fill="#3DB54A"/>
<path d="M45.514 14.2876C44.0193 15.3974 41.5872 15.396 40.0934 14.2848C38.5904 13.1661 38.5959 11.341 40.1053 10.2223C41.6074 9.10904 44.0174 9.11245 45.5195 10.2305C47.0334 11.3581 47.0316 13.1614 45.514 14.2876Z" fill="#6ABD45"/>
<path d="M16.0915 25.5921H11.8343L10.7276 22.92H5.29151L4.16108 25.5921H0L5.58076 13.7546H10.5354L16.0915 25.5921ZM6.0613 20.8211H9.95785L8.01004 16.0323L6.06222 20.8211H6.0613Z" fill="#006838"/>
<path d="M25.1588 23.6011C26.5538 23.6011 27.6238 23.8195 28.3698 24.2557C29.1158 24.6925 29.4883 25.317 29.4883 26.1299C29.4883 26.8712 29.2155 27.4869 28.67 27.9776C28.1245 28.4677 27.3593 28.8356 26.3734 29.0806C25.3876 29.3257 24.2206 29.4478 22.8741 29.4478C20.6929 29.4478 19.1222 29.2444 18.1593 28.8376C17.1973 28.4308 16.7158 27.8814 16.7158 27.1879C16.7158 26.6855 16.9886 26.2787 17.5341 25.9682C18.0787 25.6569 18.9849 25.4904 20.2517 25.4658L20.1556 25.7525C19.1771 25.6569 18.4476 25.4419 17.9671 25.1068C17.4865 24.7724 17.2458 24.3178 17.2458 23.7437C17.2458 23.1697 17.5506 22.7035 18.1602 22.3452C18.7698 21.9869 19.579 21.7889 20.5895 21.7534L22.0806 22.2735H21.6961C21.071 22.2974 20.6298 22.3752 20.3735 22.507C20.1163 22.6387 19.989 22.7998 19.989 22.9909C19.989 23.1943 20.1007 23.3472 20.3259 23.4482C20.5501 23.5499 20.887 23.6011 21.3364 23.6011H25.1606H25.1588ZM23.0426 16.4445C24.2609 16.4445 25.3034 16.5647 26.1693 16.8029C27.0352 17.0418 27.697 17.3858 28.1538 17.8342C28.6105 18.2826 28.8393 18.8362 28.8393 19.4935C28.8393 20.1508 28.6105 20.6893 28.1538 21.1439C27.697 21.5985 27.0352 21.9418 26.1693 22.1752C25.3034 22.4087 24.2609 22.5254 23.0426 22.5254C21.1341 22.5254 19.687 22.2626 18.7012 21.7364C17.7144 21.2101 17.222 20.4627 17.222 19.4942C17.222 18.8369 17.4508 18.2833 17.9076 17.8349C18.3643 17.3864 19.0261 17.0431 19.892 16.8036C20.7579 16.5647 21.8078 16.4452 23.0426 16.4452V16.4445ZM22.8979 27.4753C23.6677 27.4753 24.3048 27.4364 24.8101 27.3585C25.3153 27.2807 25.6961 27.1729 25.9524 27.0357C26.2087 26.8985 26.3368 26.7395 26.3368 26.5606C26.3368 26.3818 26.248 26.2405 26.0723 26.1395C25.8956 26.0378 25.5753 25.9866 25.1103 25.9866H20.8046C20.4998 25.9866 20.2554 26.046 20.0705 26.1661C19.8856 26.2856 19.7941 26.435 19.7941 26.6146C19.7941 26.8896 20.0668 27.1012 20.6124 27.2514C21.157 27.4009 21.9195 27.4753 22.8979 27.4753ZM23.0426 18.1844C22.5135 18.1844 22.0842 18.2983 21.7556 18.5249C21.427 18.7522 21.2623 19.0751 21.2623 19.4935C21.2623 19.9119 21.4261 20.217 21.7556 20.4443C22.0842 20.6716 22.5135 20.7856 23.0426 20.7856C23.5716 20.7856 23.9808 20.6723 24.3176 20.4443C24.6545 20.2177 24.8229 19.9003 24.8229 19.4935C24.8229 19.0867 24.6545 18.7522 24.3176 18.5249C23.9808 18.2983 23.5561 18.1844 23.0426 18.1844ZM29.2961 14.2201L29.6329 16.265C29.5368 16.2411 29.4407 16.2261 29.3446 16.22C29.2485 16.2138 29.1524 16.2111 29.0563 16.2111C28.3506 16.2111 27.8252 16.3394 27.481 16.5967C27.1359 16.8541 26.9638 17.1735 26.9638 17.5564L25.5204 17.1619C25.5204 16.6718 25.6403 16.1995 25.881 15.7449C26.1217 15.2903 26.4943 14.9197 26.9995 14.6324C27.5048 14.3457 28.1419 14.2017 28.9117 14.2017H29.092C29.1643 14.2017 29.232 14.2078 29.297 14.2194L29.2961 14.2201Z" fill="#006838"/>
<path d="M31.125 25.5922V16.6241H34.7332L34.9016 18.5612C35.2055 17.8916 35.6595 17.3715 36.2609 17.0009C36.8623 16.6302 37.6275 16.4446 38.5584 16.4446C38.8623 16.4446 39.1241 16.4623 39.3401 16.4985C39.5561 16.534 39.7291 16.5825 39.8572 16.6418L39.4481 19.1529C39.2879 19.1052 39.0829 19.0663 38.8348 19.0362C38.5858 19.0069 38.2856 18.9912 37.9332 18.9912C37.4517 18.9912 37.0032 19.069 36.5858 19.2246C36.1685 19.3802 35.8362 19.6103 35.5881 19.9154C35.3392 20.2205 35.2147 20.6061 35.2147 21.0723V25.5922H31.1259H31.125Z" fill="#006838"/>
<path d="M53.6025 29.3587V16.6236H57.2831L57.4991 19.8698L57.0185 19.4931C57.1302 18.8958 57.3792 18.3696 57.7645 17.9143C58.1499 17.4604 58.6469 17.1014 59.2565 16.8386C59.8652 16.5758 60.5627 16.4441 61.349 16.4441C62.343 16.4441 63.2089 16.6263 63.9467 16.9915C64.6835 17.356 65.2574 17.8822 65.6666 18.5702C66.0757 19.2583 66.2798 20.0917 66.2798 21.0718C66.2798 22.0519 66.0711 22.8956 65.6547 23.6007C65.2373 24.3064 64.657 24.8443 63.911 25.2149C63.165 25.5855 62.2954 25.7712 61.3014 25.7712C60.2112 25.7712 59.3288 25.5289 58.6552 25.0449C57.9815 24.561 57.533 23.9481 57.3078 23.2068L57.6931 22.7761V29.3587H53.6035H53.6025ZM59.9046 23.5297C60.6103 23.5297 61.1632 23.3351 61.5641 22.9468C61.965 22.5584 62.1654 21.9455 62.1654 21.1087C62.1654 20.2718 61.9686 19.6589 61.576 19.2705C61.1833 18.8822 60.6341 18.6876 59.9284 18.6876C59.4799 18.6876 59.0863 18.7805 58.7503 18.9661C58.4135 19.1518 58.1526 19.4234 57.9687 19.7818C57.7847 20.1401 57.6922 20.5831 57.6922 21.1087C57.6922 21.6342 57.7764 22.0444 57.9449 22.4089C58.1133 22.7734 58.3659 23.0519 58.7027 23.243C59.0396 23.4341 59.4405 23.5304 59.9055 23.5304L59.9046 23.5297Z" fill="#006838"/>
<path d="M74.5297 25.7712C73.2144 25.7712 72.0721 25.5856 71.1027 25.2149C70.1325 24.8443 69.3865 24.3153 68.8657 23.628C68.3449 22.94 68.084 22.1005 68.084 21.108C68.084 20.1156 68.3439 19.2754 68.8657 18.588C69.3865 17.9007 70.1242 17.3717 71.0789 17.0011C72.0327 16.6305 73.1274 16.4448 74.3622 16.4448C75.597 16.4448 76.7027 16.6271 77.5851 16.9922C78.4665 17.3567 79.1448 17.8591 79.618 18.4986C80.0913 19.1382 80.3274 19.8706 80.3274 20.6958C80.3274 20.9231 80.3192 21.1415 80.3036 21.3503C80.2871 21.5599 80.2633 21.736 80.2313 21.8793H70.7064V20.2296H78.451L76.4785 20.8036C76.4785 20.0862 76.3055 19.5361 75.9613 19.1532C75.6162 18.7703 75.0835 18.5792 74.3622 18.5792C73.8487 18.5792 73.4121 18.6693 73.0515 18.8481C72.6908 19.0276 72.4181 19.3054 72.2332 19.6822C72.0492 20.0589 71.9567 20.5463 71.9567 21.1442C71.9567 21.7421 72.0611 22.2199 72.2698 22.5789C72.4776 22.9379 72.775 23.2014 73.1595 23.368C73.5448 23.5359 74.0098 23.6191 74.5544 23.6191C75.1631 23.6191 75.6483 23.5297 76.0098 23.3502C76.3704 23.1707 76.6386 22.9195 76.8153 22.5967L80.0867 23.4219C79.8615 23.9242 79.4734 24.3515 78.9206 24.7044C78.3677 25.0573 77.7141 25.3228 76.9599 25.5023C76.2057 25.6818 75.3965 25.7712 74.5306 25.7712H74.5297Z" fill="#006838"/>
<path d="M86.6522 12.8218V22.5434C86.6522 22.9379 86.7401 23.2191 86.9168 23.3863C87.0934 23.5542 87.39 23.6375 87.8065 23.6375C88.0472 23.6375 88.2477 23.6259 88.4078 23.6013C88.568 23.5774 88.7602 23.5419 88.9854 23.4942L88.7209 25.3234C88.4326 25.4551 88.0554 25.563 87.5905 25.6463C87.1255 25.7295 86.6678 25.7718 86.2202 25.7718C84.9369 25.7718 84.0069 25.5507 83.4294 25.1084C82.8518 24.6661 82.5635 23.9426 82.5635 22.9386V12.8225H86.6522V12.8218Z" fill="#006838"/>
<path d="M94.5175 12.8218V22.5434C94.5175 22.9379 94.6054 23.2191 94.782 23.3863C94.9587 23.5542 95.2552 23.6375 95.6717 23.6375C95.9124 23.6375 96.1129 23.6259 96.2731 23.6013C96.4333 23.5774 96.6255 23.5419 96.8507 23.4942L96.5861 25.3234C96.2978 25.4551 95.9207 25.563 95.4557 25.6463C94.9907 25.7295 94.533 25.7718 94.0855 25.7718C92.8022 25.7718 91.8722 25.5507 91.2946 25.1084C90.717 24.6661 90.4287 23.9426 90.4287 22.9386V12.8225H94.5175V12.8218Z" fill="#006838"/>
<path d="M104.186 25.7712C102.871 25.7712 101.728 25.5856 100.759 25.2149C99.7887 24.8443 99.0428 24.3153 98.5219 23.628C98.0011 22.94 97.7402 22.1005 97.7402 21.108C97.7402 20.1156 98.0002 19.2754 98.5219 18.588C99.0428 17.9007 99.7805 17.3717 100.735 17.0011C101.689 16.6305 102.784 16.4448 104.018 16.4448C105.253 16.4448 106.359 16.6271 107.241 16.9922C108.123 17.3567 108.801 17.8591 109.274 18.4986C109.748 19.1382 109.984 19.8706 109.984 20.6958C109.984 20.9231 109.975 21.1415 109.96 21.3503C109.943 21.5599 109.92 21.736 109.888 21.8793H100.363V20.2296H108.107L106.135 20.8036C106.135 20.0862 105.962 19.5361 105.618 19.1532C105.272 18.7703 104.74 18.5792 104.018 18.5792C103.505 18.5792 103.068 18.6693 102.708 18.8481C102.347 19.0276 102.074 19.3054 101.889 19.6822C101.705 20.0589 101.613 20.5463 101.613 21.1442C101.613 21.7421 101.717 22.2199 101.926 22.5789C102.134 22.9379 102.431 23.2014 102.816 23.368C103.201 23.5359 103.666 23.6191 104.211 23.6191C104.819 23.6191 105.305 23.5297 105.666 23.3502C106.027 23.1707 106.295 22.9195 106.472 22.5967L109.743 23.4219C109.518 23.9242 109.13 24.3515 108.577 24.7044C108.024 25.0573 107.37 25.3228 106.616 25.5023C105.862 25.6818 105.053 25.7712 104.187 25.7712H104.186Z" fill="#006838"/>
<path d="M112.268 25.5917V16.6236H115.876L116.044 18.5607C116.348 17.8911 116.802 17.371 117.403 17.0004C118.005 16.6297 118.77 16.4441 119.701 16.4441C120.005 16.4441 120.266 16.4618 120.483 16.498C120.7 16.5335 120.872 16.582 121 16.6414L120.591 19.1525C120.43 19.1047 120.225 19.0658 119.976 19.0357C119.727 19.0064 119.427 18.9907 119.075 18.9907C118.594 18.9907 118.145 19.0685 117.728 19.2241C117.311 19.3798 116.978 19.6098 116.73 19.9149C116.481 20.22 116.357 20.6056 116.357 21.0718V25.5917H112.268Z" fill="#006838"/>
</svg>
