<svg width="77" height="71" viewBox="0 0 77 71" fill="none" xmlns="http://www.w3.org/2000/svg">
<path d="M74.2604 40.9622C81.9636 26.7674 70.9388 1.00957 57.352 0.340368C39.4473 -2.47531 43.8704 13.0796 28.43 13.904C12.9896 14.7284 8.76947 7.83661 2.10515 20.0463C-4.47462 32.1012 7.38291 37.2396 16.4995 59.46C21.6739 72.0712 46.188 76.032 52.9358 58.5408C59.6836 41.0496 64.6324 58.7056 74.2604 40.9622Z" fill="#5FC544"/>
<path d="M29.6038 10.0833C33.6686 10.0833 37.5906 11.5818 40.6198 14.2922C43.6491 17.0025 45.5728 20.7345 46.023 24.7742L63.9163 35.5V40.5833L58.833 37.5333V60.9167H53.7497V34.4833L46.1247 29.9083V60.9167H41.0413V27.875H18.1663V60.9167H13.083V26.6042C13.083 22.2226 14.8236 18.0204 17.9218 14.9222C21.0201 11.8239 25.2222 10.0833 29.6038 10.0833ZM29.6038 15.1667C24.6222 15.1667 20.3776 18.3438 18.8272 22.7917H40.3805C38.8301 18.3438 34.5855 15.1667 29.6038 15.1667ZM23.2497 32.9583H35.958V38.0417H23.2497V32.9583ZM23.2497 43.125H35.958V48.2083H23.2497V43.125ZM23.2497 53.2917H35.958V58.375H23.2497V53.2917Z" fill="black"/>
</svg>
